<?xml version="1.0" encoding="utf-8"?>
<!-- Generator: Adobe Illustrator 19.2.1, SVG Export Plug-In . SVG Version: 6.00 Build 0)  -->
<svg version="1.1" xmlns="http://www.w3.org/2000/svg" xmlns:xlink="http://www.w3.org/1999/xlink" x="0px" y="0px"
	 viewBox="0 0 3520 879" style="enable-background:new 0 0 3520 879;" xml:space="preserve">
<style type="text/css">
	.st0{enable-background:new    ;}
	.st1{fill:#FFFFFF;}
	.st2{fill-rule:evenodd;clip-rule:evenodd;fill:#3BA2DB;}
</style>
<g id="LOGO_1_" class="st0">
	<g id="LOGO">
		<g>
			<path class="st1" d="M1580.2,719.7c0,36.4,18.3,54.6,54.9,54.6c10.5,0,20.3-1.5,29.3-4.4v-11.7c-9,3.4-18.3,5.1-27.8,5.1
				c-28.6,0-42.8-14.5-42.8-43.6c0-27.1,14.3-40.6,42.8-40.6c9.5,0,18.8,1.7,27.8,5.1v-11.7c-9-2.9-18.8-4.4-29.3-4.4
				C1598.6,668,1580.2,685.2,1580.2,719.7z M1071.2,287.2l-92.8,215.3L805.3,113.2h-64.4l201.5,449.7h67.7l124.5-275.7H1071.2z
				 M925.9,725.9h52.4v-11h-52.4v-35.2h54.9v-11h-68.5v104.7h69.6v-11h-56V725.9z M1462.3,725.9h52.4v-11h-52.4v-35.2h54.9v-11
				h-68.5v104.7h69.6v-11h-56V725.9z M1306.7,679.7h33v93.8h13.5v-93.8h33v-11h-79.5V679.7z M1097.9,668
				c-35.1,0-52.6,17.7-52.6,53.2c0,35.3,17.5,53,52.6,53c34.5,0,51.8-17.7,51.8-53C1149.6,685.8,1132.4,668,1097.9,668z
				 M1097.9,763.2c-25.5,0-38.3-14.1-38.3-42.4c0-27.9,12.8-41.8,38.3-41.8c25,0,37.5,13.9,37.5,41.8
				C1135.4,749.1,1122.9,763.2,1097.9,763.2z M346.7,693.9c0-16.7-10-25.1-29.9-25.1h-44.7v104.7h13.5V680h29.9
				c11.1,0,16.7,4.8,16.7,14.5c0,12.2-10,19.9-30,23.1v8.9l33.3,47.1h17.9l-36-49.4C337,717.6,346.7,707.5,346.7,693.9z
				 M794.1,668.8H756v104.7h38.1c34.7,0,52-18.4,52-55.2C846.1,685.3,828.7,668.8,794.1,668.8z M794.1,762.5h-24.5v-82.8h24.5
				c25.6,0,38.5,12.8,38.5,38.5C832.5,747.8,819.7,762.5,794.1,762.5z M159.9,759.4l-38.4-90.7h-14.3l44.7,104.7h15l44.5-104.7
				h-14.1L159.9,759.4z M343.5,327.6c65.2-22,97.8-58.6,97.8-109.8c0-69.8-44.9-104.7-134.8-104.7H105V409h34.7V141.5h164.5
				c67.8,0,101.8,26.2,101.8,78.6c0,49.6-39,81.6-117,96.2v29.2c80.8,4.3,121.3,33.8,121.3,88.4c0,67.1-38.1,100.6-114.3,100.6
				H139.7V515H105v47.9h194.6c98.4,0,147.7-43.3,147.7-129.9C447.3,373.9,412.7,338.7,343.5,327.6z M668.8,773.5h13.5V668.8h-13.5
				V773.5z M554.4,759.4L516,668.8h-14.3l44.7,104.7h15l44.5-104.7h-14.1L554.4,759.4z M594.7,562.9h34.7V113.2h-34.7V562.9z
				 M1308.9,562.9h61.1c0,0,0-188.2,0-275.9h-61C1309,376.8,1308.9,562.9,1308.9,562.9z M2560.2,320.7h-97.1
				c-64.8,0-97.1-27.3-97.1-81.8c0-67.1,52.9-100.6,158.6-100.6c52.9,0,104.1,7.3,153.6,22v-31.4c-49.6-12.6-100.8-18.9-153.6-18.9
				c-128.8,0-193.3,43-193.3,128.9c0,75.5,43.9,113.2,131.8,113.2h97.1c64.3,0,96.5,26.2,96.5,78.6c0,71.3-49.4,106.9-148.3,106.9
				c-59.7,0-114.3-8.4-163.9-25.2v34.6c49.6,12.6,104.2,18.9,163.9,18.9c122,0,183-45.1,183-135.2
				C2691.4,357.4,2647.7,320.7,2560.2,320.7z M2662.6,773.5h13.5V668.8h-13.5V773.5z M2507.3,719.7c0,36.4,19,54.6,56.9,54.6
				c9.8,0,18.9-1.6,27.3-4.8v-43.5H2578v35.6c-5.5,1.2-10.4,1.8-14.9,1.8c-28.1,0-42.2-14.5-42.2-43.6c0-27.1,14.3-40.6,42.8-40.6
				c9.5,0,18.8,1.7,27.8,5.1v-11.7c-9-2.9-18.8-4.4-29.3-4.4C2525.6,668,2507.3,685.2,2507.3,719.7z M2764.9,141.5h158.6v421.4h34.7
				V141.5H3120v-28.3h-355.1V141.5z M2392.9,668c-35.1,0-52.6,17.7-52.6,53.2c0,35.3,17.5,53,52.6,53c34.5,0,51.8-17.7,51.8-53
				C2444.7,685.8,2427.4,668,2392.9,668z M2392.9,763.2c-25.5,0-38.3-14.1-38.3-42.4c0-27.9,12.8-41.8,38.3-41.8
				c25,0,37.5,13.9,37.5,41.8C2430.4,749.1,2417.9,763.2,2392.9,763.2z M2927.5,714.9H2914c-12.9,0-19.3-5.6-19.3-16.8
				c0-12.7,9.5-19,28.6-19c12.2,0,23.6,2,34.1,5.9v-12.5c-10.5-2.9-21.9-4.4-34.1-4.4c-28.1,0-42.1,10-42.1,30
				c0,19,11,28.6,32.9,28.6h13.5c13.3,0,19.9,5.6,19.9,16.8c0,13.2-9,19.8-27,19.8c-12.7,0-24.6-2-35.6-5.9v12.5
				c11,2.9,22.9,4.4,35.6,4.4c27.1,0,40.6-10.3,40.6-30.8C2961,724.4,2949.8,714.9,2927.5,714.9z M2763.3,725.9h52.4v-11h-52.4
				v-35.2h54.9v-11h-68.5v104.7h69.6v-11h-56V725.9z M1808.7,714.9h-61.9v-46.1h-13.5v104.7h13.5v-47.6h61.9v47.6h13.5V668.8h-13.5
				V714.9z M2237.6,668.8H2224v104.7h68.3v-11h-54.8V668.8z M1971.3,753.1l-64.1-84.4h-13.5v104.7h12.8v-85.1l64.1,85.1h13.5V668.8
				h-12.8V753.1z M1645.2,221c0-71.9-44.9-107.9-134.8-107.9H1309c0,9.8,0,29.8,0,67.8h61c0-91.5,0-19.7,0-19.7h134.8
				c50.2,0,75.3,20.8,75.3,62.3c0,52.4-45.2,85.4-135.4,99.1v38.1L1595,562.9h80.6l-162.2-212C1601.3,322.8,1645.2,279.5,1645.2,221
				z M1308.9,113.2L1308.9,113.2C1308.9,94.3,1308.9,113.2,1308.9,113.2z M2104.5,668c-35.1,0-52.6,17.7-52.6,53.2
				c0,35.3,17.5,53,52.6,53c34.5,0,51.8-17.7,51.8-53C2156.3,685.8,2139,668,2104.5,668z M2104.5,763.2c-25.5,0-38.3-14.1-38.3-42.4
				c0-27.9,12.8-41.8,38.3-41.8c25,0,37.5,13.9,37.5,41.8C2142,749.1,2129.5,763.2,2104.5,763.2z M1991.2,110
				c-158.1,0-237.2,76.2-237.2,228.6c0,151.6,79.1,227.4,237.2,227.4c155.7,0,233.6-75.8,233.6-227.4
				C2224.8,186.2,2146.9,110,1991.2,110z M1991.2,537.7c-132.8,0-199.2-67-199.2-201c0-132.3,66.4-198.4,199.2-198.4
				c130.4,0,195.6,66.1,195.6,198.4C2186.8,470.7,2121.6,537.7,1991.2,537.7z M3202,123.4h32.9v93.6h13.5v-93.6h32.9v-11H3202V123.4
				z M3390.6,112.4l-37.6,87.2l-38.4-87.2h-17.2v104.5h12.1v-85.7l37.7,85.7h10.7l37.1-85.7v85.7h12.1V112.4H3390.6z"/>
		</g>
	</g>
</g>
<g id="V_1_" class="st0">
	<g id="V">
		<g>
			<polygon class="st2" points="1147.2,113.2 1118,181 1180,181 1210,113 			"/>
		</g>
	</g>
</g>
</svg>
