<?xml version="1.0" encoding="utf-8"?>
<!-- Generator: Adobe Illustrator 15.0.0, SVG Export Plug-In . SVG Version: 6.00 Build 0)  -->
<!DOCTYPE svg PUBLIC "-//W3C//DTD SVG 1.1//EN" "http://www.w3.org/Graphics/SVG/1.1/DTD/svg11.dtd">
<svg version="1.1" id="Layer_1" xmlns="http://www.w3.org/2000/svg" xmlns:xlink="http://www.w3.org/1999/xlink" x="0px" y="0px"
	 width="612px" height="792px" viewBox="0 0 612 792" enable-background="new 0 0 612 792" xml:space="preserve">
<g>
	<path d="M305.602,371C291.461,371,280,382.461,280,396.602c0,14.137,11.461,25.598,25.602,25.598
		c14.136,0,25.597-11.461,25.597-25.598C331.199,382.461,319.738,371,305.602,371L305.602,371z M305.602,420.603
		c-13.258,0-24-10.747-24-24.001c0-13.257,10.742-24,24-24c13.253,0,24,10.742,24,24
		C329.602,409.855,318.855,420.603,305.602,420.603L305.602,420.603z M305.602,420.603" fill="#00a7f5"/>
	<path d="M315.199,386.199H296c-1.766,0-3.199,1.434-3.199,3.199V399c0,1.767,1.433,3.199,3.199,3.199h8.801v3.199h-4
		c-0.442,0-0.801,0.359-0.801,0.801c0,0.442,0.359,0.801,0.801,0.801h9.598c0.445,0,0.801-0.358,0.801-0.801
		c0-0.441-0.355-0.801-0.801-0.801h-4v-3.199h8.801c1.77,0,3.199-1.433,3.199-3.199v-9.602
		C318.398,387.633,316.969,386.199,315.199,386.199L315.199,386.199z M316.801,399c0,0.883-0.719,1.603-1.602,1.603H296
		c-0.883,0-1.602-0.72-1.602-1.603v-9.602c0-0.882,0.719-1.597,1.602-1.597h19.199c0.883,0,1.602,0.715,1.602,1.597V399z
		 M316.801,399" fill="#00a7f5"/>
</g>
</svg>
