<?xml version="1.0" encoding="utf-8"?>
<!-- Generator: Adobe Illustrator 15.0.0, SVG Export Plug-In . SVG Version: 6.00 Build 0)  -->
<!DOCTYPE svg PUBLIC "-//W3C//DTD SVG 1.1//EN" "http://www.w3.org/Graphics/SVG/1.1/DTD/svg11.dtd">
<svg version="1.1" id="Layer_1" xmlns="http://www.w3.org/2000/svg" xmlns:xlink="http://www.w3.org/1999/xlink" x="0px" y="0px"
	 width="612px" height="792px" viewBox="0 0 612 792" enable-background="new 0 0 612 792" xml:space="preserve">
<g>

<path
       fill="#00a7f5"
       d="M305.602,371C291.461,371,280,382.461,280,396.602c0,14.137,11.461,25.598,25.602,25.598   c14.136,0,25.597-11.461,25.597-25.598C331.199,382.461,319.738,371,305.602,371L305.602,371z M305.602,420.603   c-13.258,0-24-10.747-24-24.001c0-13.257,10.742-24,24-24c13.253,0,24,10.742,24,24   C329.602,409.855,318.855,420.603,305.602,420.603L305.602,420.603z M305.602,420.603" />
	   <path
       d="m 318.30797,384.73078 -4.83801,0 0.0382,1.602 4.79975,0 c 0.883,0 1.60505,0.71501 1.602,1.597 l -0.0131,3.79007 1.59804,0 0.0131,-3.79007 c -10e-4,-1.765 -1.43,-3.199 -3.2,-3.199"
       fill="#00a7f5" />
	   <path
       d="m 297.45019,407.11292 -4.79975,0 c -0.883,0 -1.60505,-0.72 -1.602,-1.603 l 0.0131,-3.79007 -1.59696,0 -0.0131,3.79007 c -0.006,1.76699 1.433,3.199 3.199,3.199 l 4.8,0 z"
       fill="#00a7f5" />
	   <path
       
       d="m 313.4833,408.70892 4.8,0 c 1.77,0 3.1929,-1.43301 3.199,-3.199 l 0.0131,-3.79007 -1.59804,0 -0.0131,3.79007 c -0.003,0.883 -0.719,1.603 -1.602,1.603 l -4.79975,0 z"
       fill="#00a7f5" /><path
       
       d="m 292.65716,384.73078 c -1.766,0 -3.1929,1.43401 -3.199,3.199 l -0.0131,3.79007 1.59696,0 0.0131,-3.79007 c 0.003,-0.88199 0.719,-1.597 1.602,-1.597 l 4.79975,0 -0.0382,-1.602 -4.76149,0"
       fill="#00a7f5" /></g>
</svg>
