<?xml version="1.0" encoding="UTF-8" standalone="no"?>
<!-- Generator: Adobe Illustrator 15.0.0, SVG Export Plug-In . SVG Version: 6.00 Build 0)  -->

<svg
   xmlns:dc="http://purl.org/dc/elements/1.1/"
   xmlns:cc="http://creativecommons.org/ns#"
   xmlns:rdf="http://www.w3.org/1999/02/22-rdf-syntax-ns#"
   xmlns:svg="http://www.w3.org/2000/svg"
   xmlns="http://www.w3.org/2000/svg"
   xmlns:sodipodi="http://sodipodi.sourceforge.net/DTD/sodipodi-0.dtd"
   xmlns:inkscape="http://www.inkscape.org/namespaces/inkscape"
   version="1.1"
   id="Layer_1"
   x="0px"
   y="0px"
   width="612px"
   height="792px"
   viewBox="0 0 612 792"
   enable-background="new 0 0 612 792"
   xml:space="preserve"
   inkscape:version="0.91 r13725"
   sodipodi:docname="gyro.svg"><metadata
     id="metadata13"><rdf:RDF><cc:Work
         rdf:about=""><dc:format>image/svg+xml</dc:format><dc:type
           rdf:resource="http://purl.org/dc/dcmitype/StillImage" /><dc:title></dc:title></cc:Work></rdf:RDF></metadata><defs
     id="defs11" /><sodipodi:namedview
     pagecolor="#ffffff"
     bordercolor="#666666"
     borderopacity="1"
     objecttolerance="10"
     gridtolerance="10"
     guidetolerance="10"
     inkscape:pageopacity="0"
     inkscape:pageshadow="2"
     inkscape:window-width="2560"
     inkscape:window-height="1377"
     id="namedview9"
     showgrid="false"
     inkscape:zoom="19.070707"
     inkscape:cx="299.08565"
     inkscape:cy="397.01179"
     inkscape:window-x="-8"
     inkscape:window-y="-8"
     inkscape:window-maximized="1"
     inkscape:current-layer="Layer_1"
     showguides="true"
     inkscape:guide-bbox="true"
     inkscape:snap-bbox="true"
     inkscape:bbox-paths="true"
     inkscape:bbox-nodes="true"
     inkscape:snap-bbox-edge-midpoints="true"
     inkscape:snap-bbox-midpoints="true"
     inkscape:object-paths="true"
     inkscape:snap-intersection-paths="true"
     inkscape:object-nodes="true"
     inkscape:snap-smooth-nodes="true"
     inkscape:snap-midpoints="true"
     inkscape:snap-object-midpoints="true"
     inkscape:snap-center="true"
     inkscape:snap-text-baseline="true"
     inkscape:snap-page="true"><sodipodi:guide
       position="313.889,406.524"
       orientation="0,1"
       id="guide8075" /><sodipodi:guide
       position="313.889,384.277"
       orientation="0,1"
       id="guide8077" /><sodipodi:guide
       position="294.477,403.689"
       orientation="1,0"
       id="guide8079" /><sodipodi:guide
       position="316.723,403.689"
       orientation="1,0"
       id="guide8081" /><sodipodi:guide
       position="294.477,400.66684"
       orientation="0,1"
       id="guide8083" /><sodipodi:guide
       position="300.40837,384.277"
       orientation="1,0"
       id="guide8085" /><sodipodi:guide
       position="310.84322,384.277"
       orientation="1,0"
       id="guide8087" /><sodipodi:guide
       position="294.477,390.12712"
       orientation="0,1"
       id="guide8089" /><sodipodi:guide
       position="294.477,395.4005"
       orientation="0,1"
       id="guide8091" /><sodipodi:guide
       position="305.6,406.524"
       orientation="1,0"
       id="guide8093" /></sodipodi:namedview><g
     id="g3"
     style="fill:#ffffff"><path
       d="M305.602,371C291.461,371,280,382.461,280,396.602   c0,14.137,11.461,25.598,25.602,25.598c14.136,0,25.597-11.461,25.597-25.598C331.199,382.461,319.738,371,305.602,371L305.602,371   z M305.602,420.602c-13.258,0-24-10.746-24-24c0-13.257,10.742-24,24-24c13.253,0,24,10.742,24,24   C329.603,409.855,318.855,420.602,305.602,420.602L305.602,420.602z"
       id="path5"
       clip-rule="evenodd"
       fill-rule="evenodd"
       fill="#00a7f5"
       style="fill:#ffffff" /></g><path
     style="fill:#ffffff;fill-opacity:1;stroke:none;stroke-width:1.32500005;stroke-miterlimit:4;stroke-dasharray:none;stroke-opacity:1"
     d="m 305.59961,383.86103 a 13.06314,12.738527 0 0 0 -13.0632,12.73858 13.06314,12.738527 0 0 0 13.0632,12.73858 13.06314,12.738527 0 0 0 13.0632,-12.73858 13.06314,12.738527 0 0 0 -13.0632,-12.73858 z m 0,1.61497 a 11.585154,11.12408 0 0 1 11.58598,11.12361 11.585154,11.12408 0 0 1 -11.58598,11.12584 11.585154,11.12408 0 0 1 -11.58369,-11.12584 11.585154,11.12408 0 0 1 11.58369,-11.12361 z"
     id="path8095"
     inkscape:connector-curvature="0" /><path
     style="fill:#ffffff;fill-opacity:1;stroke:none;stroke-width:1.32500005;stroke-miterlimit:4;stroke-dasharray:none;stroke-opacity:1"
     d="m 303.42301,394.46857 c -2.17634,2.13216 -3.97933,8.1624 -3.97933,8.1624 0,0 6.15592,-1.76619 8.33252,-3.89809 2.17732,-2.13261 3.98164,-8.16463 3.98164,-8.16463 0,0 -6.15777,1.76746 -8.33483,3.90032 z m 0.65367,0.64034 c 1.52327,1.49124 1.52293,1.49182 1.52293,1.49182 0,0 -1.1e-4,-1.1e-4 1.52291,1.49182 -1.71924,1.5392 -6.13298,3.0241 -6.13298,3.0241 0,0 1.00165,-3.94553 3.08714,-6.00774 z"
     id="path8131"
     inkscape:connector-curvature="0"
     sodipodi:nodetypes="acacaccccc" /></svg>