<?xml version="1.0" encoding="utf-8"?>
<!-- Generator: Adobe Illustrator 15.0.0, SVG Export Plug-In . SVG Version: 6.00 Build 0)  -->
<!DOCTYPE svg PUBLIC "-//W3C//DTD SVG 1.1//EN" "http://www.w3.org/Graphics/SVG/1.1/DTD/svg11.dtd">
<svg version="1.1" id="Layer_1" xmlns="http://www.w3.org/2000/svg" xmlns:xlink="http://www.w3.org/1999/xlink" x="0px" y="0px"
	 width="612px" height="792px" viewBox="0 0 612 792" enable-background="new 0 0 612 792" xml:space="preserve">
<g>
	<path d="M305.602,371C291.461,371,280,382.461,280,396.602c0,14.137,11.461,25.598,25.602,25.598
		c14.136,0,25.597-11.461,25.597-25.598C331.199,382.461,319.738,371,305.602,371L305.602,371z M305.602,420.603
		c-13.258,0-24-10.747-24-24.001c0-13.257,10.742-24,24-24c13.253,0,24,10.742,24,24
		C329.602,409.855,318.855,420.603,305.602,420.603L305.602,420.603z M305.602,420.603" fill="#fff"/>
	<path d="M305.602,388.602c-4.508,0-12,3.582-12,8c0,4.419,7.492,8.001,12,8.001c4.503,0,12-3.582,12-8.001
		C317.602,392.184,310.105,388.602,305.602,388.602L305.602,388.602z M305.602,403.004c-3.75,0-10.411-2.867-10.411-6.402
		c0-3.54,6.661-6.402,10.411-6.402c3.746,0,10.406,2.863,10.406,6.402C316.008,400.137,309.348,403.004,305.602,403.004
		L305.602,403.004z M305.602,403.004" fill="#fff"/>
	<path d="M305.602,391.801c-2.653,0-4.801,2.148-4.801,4.8c0,2.648,2.148,4.797,4.801,4.797c2.648,0,4.796-2.148,4.796-4.797
		C310.398,393.949,308.25,391.801,305.602,391.801L305.602,391.801z M305.602,399.801c-1.77,0-3.204-1.434-3.204-3.199
		c0-1.77,1.434-3.203,3.204-3.203c1.765,0,3.199,1.434,3.199,3.203C308.801,398.367,307.367,399.801,305.602,399.801
		L305.602,399.801z M305.602,399.801" fill="#fff"/>
	<path d="M309.488,395.691c-0.348-1.476-1.504-2.632-2.98-2.98c-0.985,0.301-1.707,1.207-1.707,2.289
		c0,1.324,1.074,2.398,2.398,2.398C308.281,397.398,309.188,396.676,309.488,395.691L309.488,395.691z M306.398,395
		c0-0.441,0.359-0.801,0.801-0.801S308,394.559,308,395c0,0.441-0.359,0.801-0.801,0.801S306.398,395.441,306.398,395L306.398,395z
		 M306.398,395" fill="#fff"/>
</g>
</svg>
