<?xml version="1.0" encoding="UTF-8" standalone="no"?>
<svg
   xmlns:dc="http://purl.org/dc/elements/1.1/"
   xmlns:cc="http://creativecommons.org/ns#"
   xmlns:rdf="http://www.w3.org/1999/02/22-rdf-syntax-ns#"
   xmlns:svg="http://www.w3.org/2000/svg"
   xmlns="http://www.w3.org/2000/svg"
   id="svg2"
   xml:space="preserve"
   enable-background="new 0 0 688.8 148.3"
   viewBox="0 0 688.8 148.3"
   y="0px"
   x="0px"
   version="1.1"><metadata
     id="metadata12"><rdf:RDF><cc:Work
         rdf:about=""><dc:format>image/svg+xml</dc:format><dc:type
           rdf:resource="http://purl.org/dc/dcmitype/StillImage" /><dc:title></dc:title></cc:Work></rdf:RDF></metadata><defs
     id="defs10" /><g
     id="BG" /><g
     style="fill:#ffffff;fill-opacity:1"
     transform="matrix(0.6588391,0,0,0.6588391,88.283871,80.54193)"
     id="Oculus_Logo"><path
       style="fill:#ffffff;fill-opacity:1"
       id="path6"
       d="m 450,30 c -2.4,-0.5 -4.9,-0.7 -7.3,-0.4 -1.2,0.1 -2.4,0.4 -3.6,0.8 -0.9,0.3 -1.7,0.8 -2.5,1.4 -1.1,0.9 -1.9,2 -2.1,3.5 -0.1,1.2 0.3,2.3 1,3.3 0.9,1.1 2.2,1.8 3.4,2.4 1.2,0.5 2.4,0.9 3.6,1.2 1.4,0.4 2.9,0.7 4.3,1 3.3,0.7 6.6,1.5 9.7,2.7 5.6,2.2 10.9,5.9 13.1,12.1 0.9,2.6 1.2,5.4 0.8,8.2 -0.5,3.3 -1.8,6.5 -3.9,9.2 -1.6,2.1 -3.5,3.8 -5.8,5.1 -3.1,1.8 -6.5,2.9 -10,3.5 -2.7,0.5 -5.4,0.6 -8.2,0.5 -3.4,-0.1 -6.7,-0.7 -10,-1.6 -6,-1.7 -11.4,-4.6 -16.1,-8.6 2.7,-3.6 5.3,-7.1 8,-10.7 3,2.3 6.1,4.1 9.6,5.4 2.3,0.9 4.6,1.4 7.1,1.7 2.2,0.3 4.5,0.3 6.7,0.1 1.6,-0.2 3.2,-0.6 4.6,-1.3 1.1,-0.5 2.1,-1.3 2.9,-2.3 0.6,-0.8 1.1,-1.8 1.2,-2.9 0.1,-1.1 -0.2,-2.2 -0.7,-3.2 -0.7,-1.1 -1.7,-2 -2.8,-2.7 -1.4,-0.9 -3.1,-1.4 -4.6,-1.9 -1.9,-0.6 -3.9,-1 -5.9,-1.4 -5.6,-1.2 -12.2,-2.7 -16.9,-6.8 -2.2,-1.9 -3.9,-4.4 -4.8,-7.2 -1,-3.1 -1,-6.4 -0.1,-9.5 0.7,-2.5 1.9,-4.8 3.5,-6.8 2.3,-2.8 5.2,-4.8 8.5,-6.2 2.5,-1 5,-1.7 7.7,-2 3.4,-0.5 6.9,-0.4 10.3,0.1 6.1,0.9 11.8,3.3 16.8,6.9 -2.5,3.4 -5,6.9 -7.5,10.3 -3,-1.7 -6.3,-3.1 -10,-3.9 z m -123.4,-44.5 -15,0 0,97.3 15,0 z m 77.6,97.2 0,-63 -15,0 0,29.8 c 0,1.7 0,3.5 -0.1,5.2 -0.1,1.1 -0.2,2.2 -0.4,3.3 -0.4,2.1 -1.1,4.1 -2.2,5.9 -2.8,4.4 -7.7,6.5 -12.7,6.6 -5.1,0.1 -9.9,-2 -12.6,-6.5 -1.1,-1.8 -1.7,-3.8 -2.1,-5.9 -0.5,-2.8 -0.7,-5.7 -0.7,-8.5 0,-1.8 -0.1,-3.7 -0.1,-5.5 l 0,-9.4 0,-14.9 -15,0 0,25.5 c 0,2.5 0,4.9 0.1,7.4 0.1,1.8 0.1,3.6 0.3,5.4 0.4,4.3 1.2,8.4 3.1,12.3 4,8 11.7,12.6 20.3,13.6 4.2,0.5 8.6,0.1 12.6,-1.1 3.9,-1.2 8.1,-3.2 11,-6.2 0.1,2 0.3,4 0.4,6.1 4.3,-0.1 8.7,-0.1 13.1,-0.1 z M 223.5,74.6 c -3.4,-3.5 -6.9,-7.1 -10.3,-10.6 -2.7,2.5 -5.9,4.2 -9.5,4.9 -3.5,0.8 -7.2,0.7 -10.7,-0.4 -3.5,-1.1 -6.4,-3.3 -8.6,-6.3 -2.1,-3 -3.2,-6.5 -3.4,-10.1 -0.2,-3.5 0.5,-7.3 2.2,-10.4 1.8,-3.3 4.4,-5.7 7.8,-7.1 1.5,-0.6 3,-1.1 4.5,-1.3 2,-0.3 4,-0.4 6,-0.1 3.6,0.4 7,1.8 10,3.7 3,-3.8 6,-7.7 9.1,-11.5 -5.2,-4.1 -11.1,-6.5 -17.7,-7.2 -6.4,-0.7 -13.1,0.3 -18.9,3.1 -6,2.8 -10.7,7.3 -13.8,13.2 -3.1,5.7 -4.3,12.3 -4,18.8 0.3,6.4 2.2,12.9 6,18.2 3.8,5.4 9.1,9.3 15.3,11.4 6.1,2.1 12.9,2.4 19.2,1.1 6.4,-1.6 12.3,-4.6 16.8,-9.4 z m 70.3,8.1 0,-63 -15,0 0,29.8 c 0,1.7 0,3.5 -0.1,5.2 -0.1,1.1 -0.2,2.2 -0.4,3.3 -0.4,2.1 -1.1,4.1 -2.2,5.9 -2.8,4.4 -7.7,6.5 -12.7,6.6 -5.1,0.1 -9.9,-2 -12.6,-6.5 -1.1,-1.8 -1.7,-3.8 -2.1,-5.9 -0.5,-2.8 -0.7,-5.7 -0.7,-8.5 0,-1.8 -0.1,-3.7 -0.1,-5.5 l 0,-9.4 0,-14.9 -15,0 0,25.5 c 0,2.5 0,4.9 0.1,7.4 0.1,1.8 0.1,3.6 0.3,5.4 0.4,4.3 1.2,8.4 3.1,12.3 4,8 11.7,12.6 20.3,13.6 4.2,0.5 8.6,0.1 12.6,-1.1 3.9,-1.2 8.1,-3.2 11,-6.2 0.1,2 0.3,4 0.4,6.1 4.3,-0.1 8.7,-0.1 13.1,-0.1 z M 155.1,51.3 c 0,8.7 -3.2,17.2 -9.4,23.5 -6.2,6.2 -14.7,9.5 -23.4,9.5 -8.7,0 -17.2,-3.3 -23.3,-9.6 -6.2,-6.3 -9.3,-14.8 -9.2,-23.5 0,-8.7 3.2,-17.2 9.4,-23.5 6.2,-6.2 14.7,-9.5 23.4,-9.5 8.7,0 17.2,3.3 23.3,9.6 6.1,6.3 9.3,14.9 9.2,23.5 z m -14.7,0 c 0,-1.3 -0.1,-2.6 -0.3,-3.8 -0.2,-1.2 -0.6,-2.4 -1,-3.6 -0.4,-1.1 -1,-2.1 -1.6,-3.1 -0.6,-0.9 -1.3,-1.8 -2.1,-2.6 -0.8,-0.8 -1.7,-1.5 -2.6,-2.1 -1,-0.6 -2,-1.2 -3.1,-1.6 -1.1,-0.5 -2.3,-0.8 -3.5,-1 -1.2,-0.2 -2.5,-0.4 -3.7,-0.4 -1.2,0 -2.5,0.1 -3.7,0.3 -1.2,0.2 -2.4,0.6 -3.5,1 -1.1,0.4 -2.1,1 -3.1,1.6 -0.9,0.6 -1.8,1.3 -2.6,2.1 -0.8,0.8 -1.5,1.7 -2.1,2.6 -0.6,1 -1.2,2 -1.6,3.1 -0.5,1.1 -0.8,2.3 -1,3.6 -0.2,1.3 -0.4,2.5 -0.4,3.8 0,1.3 0.1,2.6 0.3,3.8 0.2,1.2 0.6,2.4 1,3.6 0.4,1.1 1,2.1 1.6,3.1 0.6,0.9 1.3,1.8 2.1,2.6 0.8,0.8 1.7,1.5 2.6,2.1 1,0.6 2,1.2 3.1,1.6 1.1,0.5 2.3,0.8 3.5,1 1.2,0.2 2.5,0.4 3.7,0.4 1.2,0 2.5,-0.1 3.7,-0.3 1.2,-0.2 2.4,-0.6 3.5,-1 1.1,-0.4 2.1,-1 3.1,-1.6 0.9,-0.6 1.8,-1.3 2.6,-2.1 0.8,-0.8 1.5,-1.7 2.1,-2.6 0.6,-1 1.2,-2 1.6,-3.1 0.5,-1.1 0.8,-2.3 1,-3.6 0.2,-1.3 0.4,-2.5 0.4,-3.8 z" /></g><path
     style="fill:#ffffff;fill-opacity:1"
     id="path6-3"
     d="m 397.59999,-23.9 c 0,22.3 -10.1,43.4 -27.5,57.3 -8.6,6.9 -18.5,11.7 -29.3,14.3 -6.2,1.5 -12.3,2.1 -18.7,2.4 -4.7,0.2 -9.4,0.1 -14,0.1 l -66.5,0 c -4.7,0 -9.4,0 -14,-0.1 -6.3,-0.2 -12.5,-0.9 -18.7,-2.3 -10.8,-2.6 -20.7,-7.4 -29.3,-14.3 -17.5,-14 -27.6,-35 -27.6,-57.4 0,-22.3 10.1,-43.4 27.5,-57.3 8.7,-6.9 18.6,-11.7 29.3,-14.3 6.2,-1.5 12.4,-2.2 18.7,-2.4 4.7,-0.1 9.3,-0.1 14,-0.1 l 66.5,0 c 4.7,0 9.4,0 14,0.1 6.3,0.2 12.5,0.9 18.7,2.3 10.8,2.6 20.7,7.4 29.3,14.3 17.4,14 27.6,35.1 27.6,57.4 z m -49.5,0 c 0,-8 -3.9,-15.4 -10.5,-20 -3.3,-2.3 -6.9,-3.6 -10.8,-4.3 -3.9,-0.6 -7.8,-0.5 -11.7,-0.5 l -80.5,0 c -3.9,0 -7.8,-0.1 -11.7,0.5 -3.89999,0.6 -7.5,2 -10.8,4.3 -6.6,4.5 -10.5,11.9 -10.5,19.9 0,8 3.9,15.4 10.5,20 3.3,2.3 6.9,3.6 10.8,4.3 3.9,0.6 7.8,0.5 11.7,0.5 l 80.5,0 c 3.9,0 7.8,0.1 11.7,-0.5 3.9,-0.6 7.5,-2 10.8,-4.3 6.5,-4.4 10.5,-11.9 10.5,-19.9 z" /></svg>