<?xml version="1.0" encoding="utf-8"?>
<!-- Generator: Adobe Illustrator 15.0.0, SVG Export Plug-In . SVG Version: 6.00 Build 0)  -->
<!DOCTYPE svg PUBLIC "-//W3C//DTD SVG 1.1//EN" "http://www.w3.org/Graphics/SVG/1.1/DTD/svg11.dtd">
<svg version="1.1" id="Layer_1" xmlns="http://www.w3.org/2000/svg" xmlns:xlink="http://www.w3.org/1999/xlink" x="0px" y="0px"
	 width="612px" height="792px" viewBox="0 0 612 792" enable-background="new 0 0 612 792" xml:space="preserve">
<g>
	<path d="M305.602,371C291.461,371,280,382.461,280,396.602c0,14.137,11.461,25.598,25.602,25.598
		c14.136,0,25.597-11.461,25.597-25.598C331.199,382.461,319.738,371,305.602,371L305.602,371z M305.602,420.603
		c-13.258,0-24-10.747-24-24.001c0-13.257,10.742-24,24-24c13.253,0,24,10.742,24,24
		C329.602,409.855,318.855,420.603,305.602,420.603L305.602,420.603z M305.602,420.603" fill="#00a7f5"/>
	<path d="M316.801,393.398h-22.403c-0.882,0-1.597,0.719-1.597,1.602l3.199,8.801c0,0.884,0.719,1.598,1.602,1.598h16
		c0.883,0,1.598-0.714,1.598-1.598l3.199-8.801C318.398,394.117,317.684,393.398,316.801,393.398L316.801,393.398z M313.602,403.801
		h-16L294.398,395h22.403L313.602,403.801z M313.602,403.801" fill="#00a7f5"/>
	<path d="M315.199,390.199h-10.398v-0.801c0-0.882-0.719-1.597-1.602-1.597H296c-0.883,0-1.602,0.715-1.602,1.597v4
		c0,0.883,0.719,1.602,1.602,1.602h5.602c0.136,0,0.269-0.023,0.398-0.055c0.129,0.032,0.262,0.055,0.398,0.055h12.801
		c0.883,0,1.602-0.719,1.602-1.602v-1.597C316.801,390.918,316.082,390.199,315.199,390.199L315.199,390.199z M315.199,394.199H296
		v-4.801h7.199v2.403h12V394.199z M315.199,394.199" fill="#00a7f5"/>
</g>
</svg>
