<?xml version="1.0" encoding="UTF-8" standalone="no"?>
<!-- Generator: Adobe Illustrator 15.0.0, SVG Export Plug-In . SVG Version: 6.00 Build 0)  -->

<svg
   xmlns:dc="http://purl.org/dc/elements/1.1/"
   xmlns:cc="http://creativecommons.org/ns#"
   xmlns:rdf="http://www.w3.org/1999/02/22-rdf-syntax-ns#"
   xmlns:svg="http://www.w3.org/2000/svg"
   xmlns="http://www.w3.org/2000/svg"
   xmlns:sodipodi="http://sodipodi.sourceforge.net/DTD/sodipodi-0.dtd"
   xmlns:inkscape="http://www.inkscape.org/namespaces/inkscape"
   version="1.1"
   id="Layer_1"
   x="0px"
   y="0px"
   width="612px"
   height="792px"
   viewBox="0 0 612 792"
   enable-background="new 0 0 612 792"
   xml:space="preserve"
   inkscape:version="0.91 r13725"
   sodipodi:docname="openurl_blue.svg"><metadata
     id="metadata15"><rdf:RDF><cc:Work
         rdf:about=""><dc:format>image/svg+xml</dc:format><dc:type
           rdf:resource="http://purl.org/dc/dcmitype/StillImage" /><dc:title></dc:title></cc:Work></rdf:RDF></metadata><defs
     id="defs13" /><sodipodi:namedview
     pagecolor="#ffffff"
     bordercolor="#666666"
     borderopacity="1"
     objecttolerance="10"
     gridtolerance="10"
     guidetolerance="10"
     inkscape:pageopacity="0"
     inkscape:pageshadow="2"
     inkscape:window-width="2560"
     inkscape:window-height="1377"
     id="namedview11"
     showgrid="false"
     inkscape:snap-bbox="true"
     inkscape:bbox-paths="true"
     inkscape:bbox-nodes="true"
     inkscape:snap-bbox-edge-midpoints="true"
     inkscape:snap-bbox-midpoints="true"
     inkscape:snap-intersection-paths="true"
     inkscape:object-paths="true"
     inkscape:object-nodes="true"
     inkscape:snap-smooth-nodes="true"
     inkscape:snap-midpoints="true"
     inkscape:snap-object-midpoints="true"
     inkscape:snap-center="true"
     inkscape:snap-text-baseline="true"
     inkscape:snap-page="true"
     showguides="true"
     inkscape:guide-bbox="true"
     inkscape:zoom="10.95"
     inkscape:cx="307.08548"
     inkscape:cy="386.78464"
     inkscape:window-x="-8"
     inkscape:window-y="-8"
     inkscape:window-maximized="1"
     inkscape:current-layer="Layer_1"><sodipodi:guide
       position="296.07416,406.94278"
       orientation="0,1"
       id="guide8075" /><sodipodi:guide
       position="315.27316,400.98972"
       orientation="1,0"
       id="guide8077" /><sodipodi:guide
       position="315.27316,405.34078"
       orientation="0,1"
       id="guide8079" /><sodipodi:guide
       position="315.27316,426.88506"
       orientation="0,1"
       id="guide8081" /><sodipodi:guide
       position="306.26558,405.32287"
       orientation="1,0"
       id="guide8083" /><sodipodi:guide
       position="296.07416,399.74378"
       orientation="0,1"
       id="guide8085" /><sodipodi:guide
       position="315.87712,403.11825"
       orientation="0,1"
       id="guide8087" /></sodipodi:namedview><g
     id="g3"
     style="fill:#00a7f5;fill-opacity:1"><path
       d="M305.602,371C291.461,371,280,382.461,280,396.602c0,14.137,11.461,25.598,25.602,25.598   c14.136,0,25.597-11.461,25.597-25.598C331.199,382.461,319.738,371,305.602,371L305.602,371z M305.602,420.603   c-13.258,0-24-10.747-24-24.001c0-13.257,10.742-24,24-24c13.253,0,24,10.742,24,24   C329.602,409.855,318.855,420.603,305.602,420.603L305.602,420.603z M305.602,420.603"
       fill="#fff"
       id="path5"
       style="fill:#00a7f5;fill-opacity:1" /><path
       d="m 308.01545,396.94087 -1.09598,1.8983 -11.45988,-6.61637 3.91227,-6.77624 c 3.03175,1.82394 6.01036,3.47586 11.45738,6.6207 l -1.03782,1.79755 1.38737,0.801 1.03782,-1.79755 c 0.4415,-0.76471 0.17833,-1.74688 -0.58637,-2.18838 l -11.45988,-6.61636 c -0.7647,-0.4415 -1.74487,-0.18178 -2.18587,0.58204 l -3.91227,6.77624 c -0.4415,0.7647 -0.17833,1.74687 0.58637,2.18837 5.57479,3.18212 5.8715,3.38991 11.45988,6.61637 0.7647,0.44151 1.74688,0.17834 2.18838,-0.58636 l 1.09598,-1.8983"
       id="path9"
       style="fill:#00a7f5;fill-opacity:1"
       inkscape:connector-curvature="0"
       sodipodi:nodetypes="cccccccsccssccsc" /></g><path
     d="m 302.84607,395.01608 1.09598,-1.8983 11.45988,6.61637 -3.91227,6.77624 c -3.03175,-1.82394 -6.01036,-3.47586 -11.45738,-6.6207 l 1.03782,-1.79755 -1.38737,-0.801 -1.03782,1.79755 c -0.4415,0.76471 -0.17833,1.74688 0.58637,2.18838 l 11.45988,6.61636 c 0.7647,0.4415 1.74487,0.18179 2.18587,-0.58204 l 3.91227,-6.77624 c 0.4415,-0.7647 0.17833,-1.74687 -0.58637,-2.18837 -5.57479,-3.18212 -5.8715,-3.38991 -11.45988,-6.61637 -0.7647,-0.4415 -1.74688,-0.17833 -2.18838,0.58637 l -1.09598,1.8983"
     id="path9-3"
     style="fill:#00a7f5;fill-opacity:1"
     inkscape:connector-curvature="0"
     sodipodi:nodetypes="cccccccsccssccsc" /></svg>