<?xml version="1.0" encoding="UTF-8" standalone="no"?>
<svg
   xmlns:dc="http://purl.org/dc/elements/1.1/"
   xmlns:cc="http://creativecommons.org/ns#"
   xmlns:rdf="http://www.w3.org/1999/02/22-rdf-syntax-ns#"
   xmlns:svg="http://www.w3.org/2000/svg"
   xmlns="http://www.w3.org/2000/svg"
   version="1.1"
   id="svg8172"
   viewBox="0 0 744.09448819 1052.3622047"
   height="297mm"
   width="210mm">
  <defs
     id="defs8174" />
  <metadata
     id="metadata8177">
    <rdf:RDF>
      <cc:Work
         rdf:about="">
        <dc:format>image/svg+xml</dc:format>
        <dc:type
           rdf:resource="http://purl.org/dc/dcmitype/StillImage" />
        <dc:title></dc:title>
      </cc:Work>
    </rdf:RDF>
  </metadata>
  <g
     id="layer1">
    <path
       id="path22"
       d="m 344.76535,31.139827 c -1.28767,0 -2.3418,1.054129 -2.3418,2.341797 l 0,32.046875 c 0,1.287668 1.05413,2.341797 2.3418,2.341797 l 36.18359,0 c 1.28767,0 2.3418,-1.054129 2.3418,-2.341797 l 0,-32.046875 c 0,-1.287668 -1.05413,-2.341797 -2.3418,-2.341797 l -36.18359,0 z m 7.64257,7.029297 5.52539,0 c 0.98443,0 1.7007,0.210915 2.17774,0.615235 0.47704,0.40432 0.67773,0.991483 0.67773,1.638671 l 0,4.324219 c 0,0.647295 -0.20068,1.236331 -0.67773,1.640625 -0.47705,0.404294 -1.19332,0.613281 -2.17774,0.613281 l -5.52539,0 c -0.9843,0 -1.70071,-0.208987 -2.17773,-0.613281 -0.47702,-0.404294 -0.68555,-0.99333 -0.68555,-1.640625 l 0,-4.324219 c 0,-0.647188 0.20854,-1.234349 0.68555,-1.638671 0.47701,-0.404322 1.19342,-0.615235 2.17773,-0.615235 z m 15.11133,0 7.08203,0 0.23438,0 0,0.234375 0,1.234375 0,0.234375 -0.23438,0 -7.08203,0 c -0.32667,0 -0.53568,0.06682 -0.64844,0.152344 -0.11275,0.08552 -0.16406,0.18916 -0.16406,0.386719 l 0,0.515625 c 0,0.197561 0.0513,0.299241 0.16406,0.384765 0.11276,0.08552 0.32177,0.146484 0.64844,0.146484 l 4.92383,0 c 0.98431,0 1.69872,0.216781 2.17578,0.621094 0.47706,0.404313 0.67969,0.991469 0.67969,1.638672 l 0,1.029297 c 0,0.64731 -0.20262,1.236338 -0.67969,1.640625 -0.43327,0.36717 -1.09196,0.548902 -1.94141,0.583984 l 0,0.0293 -0.23437,0 -7.27539,0 -0.23438,0 0,-0.234375 0,-1.234375 0,-0.234375 0.23438,0 7.27539,0 c 0.32654,0 0.52978,-0.0668 0.64258,-0.152344 0.1128,-0.08554 0.16406,-0.189197 0.16406,-0.386718 l 0,-1.052735 c 0,-0.197523 -0.0513,-0.301177 -0.16406,-0.386718 -0.1128,-0.08554 -0.31604,-0.152344 -0.64258,-0.152344 l -4.92383,0 c -0.9843,0 -1.69876,-0.214847 -2.17578,-0.619141 -0.47702,-0.404294 -0.68555,-0.991375 -0.68555,-1.638671 l 0,-0.486329 c 0,-0.647188 0.20854,-1.234349 0.68555,-1.638671 0.47701,-0.404322 1.19147,-0.615235 2.17578,-0.615235 z m -15.11133,1.703125 c -0.32654,0 -0.53766,0.06682 -0.65039,0.152344 -0.11273,0.08552 -0.16406,0.18916 -0.16406,0.386719 l 0,4.347656 c 0,0.197559 0.0513,0.301199 0.16406,0.386718 0.11273,0.08552 0.32385,0.152344 0.65039,0.152344 l 5.52539,0 c 0.32654,0 0.53564,-0.0668 0.64844,-0.152344 0.1128,-0.08554 0.1582,-0.189195 0.1582,-0.386718 l 0,-4.347656 c 0,-0.197524 -0.0454,-0.301177 -0.1582,-0.386719 -0.1128,-0.08554 -0.3219,-0.152344 -0.64844,-0.152344 l -5.52539,0 z m -3.78125,12.560547 0.43946,0 1.79687,0 0.12305,0 0.0703,0.105469 4.17187,6.433593 4.13282,-6.433593 0.0703,-0.105469 0.1289,0 1.74414,0 0.43946,0 -0.24024,0.363281 -5.52539,8.363281 -0.0703,0.105469 -0.12891,0 -1.15234,0 -0.12305,0 -0.0703,-0.105469 -5.56054,-8.363281 -0.2461,-0.363281 z m 16.20118,0 0.23437,0 7.10547,0 c 0.98443,0 1.70069,0.210878 2.17773,0.615234 0.47705,0.404356 0.6836,0.991375 0.6836,1.638672 l 0,0.591797 c 0,0.582722 -0.16322,1.118828 -0.54297,1.515625 -0.31869,0.332994 -0.812,0.528298 -1.41211,0.636719 l 1.83203,3.488281 0.17578,0.345703 -0.38672,0 -1.68554,0 -0.14063,0 -0.0644,-0.128906 -1.89453,-3.605469 -4.0332,0 0,3.5 0,0.234375 -0.23438,0 -1.58008,0 -0.23437,0 0,-0.234375 0,-8.363281 0,-0.234375 z m 2.04882,1.703125 0,1.691406 5.29102,0 c 0.32664,0 0.53567,-0.06677 0.64844,-0.152344 0.11277,-0.08557 0.1582,-0.187208 0.1582,-0.384765 l 0,-0.615235 c 0,-0.197559 -0.0454,-0.301147 -0.1582,-0.386718 -0.11277,-0.08557 -0.3218,-0.152344 -0.64844,-0.152344 l -5.29102,0 z"
       style="fill:#00a7f5;fill-opacity:1;fill-rule:nonzero;stroke:none" />
  </g>
</svg>
