<?xml version="1.0" encoding="UTF-8" standalone="no"?>
<svg
   xmlns:dc="http://purl.org/dc/elements/1.1/"
   xmlns:cc="http://creativecommons.org/ns#"
   xmlns:rdf="http://www.w3.org/1999/02/22-rdf-syntax-ns#"
   xmlns:svg="http://www.w3.org/2000/svg"
   xmlns="http://www.w3.org/2000/svg"
   xml:space="preserve"
   enable-background="new 0 0 612 792"
   viewBox="0 0 612 792"
   height="792px"
   width="612px"
   y="0px"
   x="0px"
   id="Layer_1"
   version="1.1"><metadata
     id="metadata15"><rdf:RDF><cc:Work
         rdf:about=""><dc:format>image/svg+xml</dc:format><dc:type
           rdf:resource="http://purl.org/dc/dcmitype/StillImage" /><dc:title></dc:title></cc:Work></rdf:RDF></metadata><defs
     id="defs13" /><g
     style="fill:#ffffff;fill-opacity:1"
     id="g3"><path
       style="fill:#ffffff;fill-opacity:1"
       id="path5"
       fill="#fff"
       d="M305.602,371C291.461,371,280,382.461,280,396.602c0,14.137,11.461,25.598,25.602,25.598   c14.136,0,25.597-11.461,25.597-25.598C331.199,382.461,319.738,371,305.602,371L305.602,371z M305.602,420.603   c-13.258,0-24-10.747-24-24.001c0-13.257,10.742-24,24-24c13.253,0,24,10.742,24,24   C329.602,409.855,318.855,420.603,305.602,420.603L305.602,420.603z M305.602,420.603" /></g><path
     style="fill:#ffffff;fill-opacity:1"
     id="path9-3"
     d="m 294.2981,397.8689 18.10845,0 -2e-5,1.52533 2e-5,1.18527 c 1.75706,-1.16707 5.26732,-3.9775 5.26732,-3.9775 0,0 -3.43078,-2.71737 -5.26732,-3.9775 l 0,2.71059 c 0,0 -2,0.0123 -18.10845,0 -1.29595,-9.9e-4 -1.29595,2.53381 0,2.53381 z" /></svg>