<?xml version="1.0" encoding="utf-8"?>
<!-- Generator: Adobe Illustrator 15.0.0, SVG Export Plug-In . SVG Version: 6.00 Build 0)  -->
<!DOCTYPE svg PUBLIC "-//W3C//DTD SVG 1.1//EN" "http://www.w3.org/Graphics/SVG/1.1/DTD/svg11.dtd">
<svg version="1.1" id="Layer_1" xmlns="http://www.w3.org/2000/svg" xmlns:xlink="http://www.w3.org/1999/xlink" x="0px" y="0px"
	 width="612px" height="792px" viewBox="0 0 612 792" enable-background="new 0 0 612 792" xml:space="preserve">
<g>
	<path d="M305.602,371C291.461,371,280,382.461,280,396.602c0,14.137,11.461,25.598,25.602,25.598
		c14.136,0,25.597-11.461,25.597-25.598C331.199,382.461,319.738,371,305.602,371L305.602,371z M305.602,420.603
		c-13.258,0-24-10.747-24-24.001c0-13.257,10.742-24,24-24c13.253,0,24,10.742,24,24
		C329.602,409.855,318.855,420.603,305.602,420.603L305.602,420.603z M305.602,420.603" fill="#00a7f5"/>
	<path d="M312.887,395.273l-9.598-6.39c-0.492-0.328-1.125-0.36-1.644-0.082c-0.52,0.277-0.844,0.82-0.844,1.41v12.785
		c0,0.59,0.324,1.129,0.844,1.406c0.519,0.278,1.152,0.25,1.644-0.078l9.598-6.39c0.445-0.298,0.715-0.798,0.715-1.333
		S313.332,395.57,312.887,395.273L312.887,395.273z M311.039,397.738l-7.512,4.629c-0.402,0.266-1.129,0.281-1.129,0.281v-12.171
		c0,0,0.727-0.036,1.129,0.23l7.512,4.957c0.367,0.242,0.586,0.547,0.586,0.984S311.406,397.496,311.039,397.738L311.039,397.738z
		 M311.039,397.738" fill="#00a7f5"/>
</g>
</svg>
