<?xml version="1.0" encoding="utf-8"?>
<!-- Generator: Adobe Illustrator 15.0.0, SVG Export Plug-In . SVG Version: 6.00 Build 0)  -->
<!DOCTYPE svg PUBLIC "-//W3C//DTD SVG 1.1//EN" "http://www.w3.org/Graphics/SVG/1.1/DTD/svg11.dtd">
<svg version="1.1" id="Layer_1" xmlns="http://www.w3.org/2000/svg" xmlns:xlink="http://www.w3.org/1999/xlink" x="0px" y="0px"
	 width="612px" height="792px" viewBox="0 0 612 792" enable-background="new 0 0 612 792" xml:space="preserve">
<g>
	<path d="M305.602,371C291.461,371,280,382.461,280,396.602c0,14.137,11.461,25.598,25.602,25.598
		c14.136,0,25.597-11.461,25.597-25.598C331.199,382.461,319.738,371,305.602,371L305.602,371z M305.602,420.603
		c-13.258,0-24-10.747-24-24.001c0-13.257,10.742-24,24-24c13.253,0,24,10.742,24,24
		C329.602,409.855,318.855,420.603,305.602,420.603L305.602,420.603z M305.602,420.603" fill="#00a7f5"/>
	<path d="M305.602,387c-5.305,0-9.602,4.297-9.602,9.602h-3.199l4,4.797l4-4.797h-3.199c0-4.417,3.578-8,8-8c4.417,0,8,3.582,8,8
		c0,4.419-3.582,8.001-8,8.001c-0.442,0-0.801,0.354-0.801,0.796c0,0.445,0.359,0.801,0.801,0.801c5.3,0,9.597-4.297,9.597-9.598
		C315.199,391.297,310.902,387,305.602,387L305.602,387z M305.602,387" fill="#00a7f5"/>
</g>
</svg>
