<?xml version="1.0" encoding="utf-8"?>
<!-- Generator: Adobe Illustrator 15.0.0, SVG Export Plug-In . SVG Version: 6.00 Build 0)  -->
<!DOCTYPE svg PUBLIC "-//W3C//DTD SVG 1.1//EN" "http://www.w3.org/Graphics/SVG/1.1/DTD/svg11.dtd">
<svg version="1.1" id="Layer_1" xmlns="http://www.w3.org/2000/svg" xmlns:xlink="http://www.w3.org/1999/xlink" x="0px" y="0px"
	 width="612px" height="792px" viewBox="0 0 612 792" enable-background="new 0 0 612 792" xml:space="preserve">
<g>
	<path d="M305.602,371C291.461,371,280,382.461,280,396.602c0,14.137,11.461,25.598,25.602,25.598
		c14.136,0,25.597-11.461,25.597-25.598C331.199,382.461,319.738,371,305.602,371L305.602,371z M305.602,420.603
		c-13.258,0-24-10.747-24-24.001c0-13.257,10.742-24,24-24c13.253,0,24,10.742,24,24
		C329.602,409.855,318.855,420.603,305.602,420.603L305.602,420.603z M305.602,420.603" fill="#fff"/>
	<path d="M306.398,396.715V387h-1.598v9.715c-1.379,0.355-2.403,1.598-2.403,3.086s1.024,2.73,2.403,3.086v3.313h1.598v-3.313
		c1.379-0.355,2.402-1.598,2.402-3.086S307.777,397.07,306.398,396.715L306.398,396.715z M305.602,401.398
		c-0.883,0-1.602-0.714-1.602-1.598c0-0.883,0.719-1.602,1.602-1.602c0.882,0,1.597,0.719,1.597,1.602
		C307.199,400.685,306.484,401.398,305.602,401.398L305.602,401.398z M300,389.512V387h-1.602v2.512
		c-1.375,0.359-2.398,1.597-2.398,3.09c0,1.488,1.023,2.726,2.398,3.085v10.512H300v-10.512c1.379-0.359,2.398-1.597,2.398-3.085
		C302.398,391.109,301.379,389.871,300,389.512L300,389.512z M299.199,394.199c-0.883,0-1.597-0.715-1.597-1.597
		c0-0.883,0.714-1.602,1.597-1.602c0.883,0,1.602,0.719,1.602,1.602C300.801,393.484,300.082,394.199,299.199,394.199
		L299.199,394.199z M312.801,389.512V387h-1.602v2.512c-1.375,0.359-2.398,1.597-2.398,3.09c0,1.488,1.023,2.726,2.398,3.085v10.512
		h1.602v-10.512c1.375-0.359,2.398-1.597,2.398-3.085C315.199,391.109,314.176,389.871,312.801,389.512L312.801,389.512z
		 M312,394.199c-0.883,0-1.602-0.715-1.602-1.597c0-0.883,0.719-1.602,1.602-1.602s1.602,0.719,1.602,1.602
		C313.602,393.484,312.883,394.199,312,394.199L312,394.199z M312,394.199" fill="#fff"/>
</g>
</svg>
