<?xml version="1.0" encoding="UTF-8" standalone="no"?>
<!-- Created with Inkscape (http://www.inkscape.org/) -->

<svg
   xmlns:dc="http://purl.org/dc/elements/1.1/"
   xmlns:cc="http://creativecommons.org/ns#"
   xmlns:rdf="http://www.w3.org/1999/02/22-rdf-syntax-ns#"
   xmlns:svg="http://www.w3.org/2000/svg"
   xmlns="http://www.w3.org/2000/svg"
   xmlns:sodipodi="http://sodipodi.sourceforge.net/DTD/sodipodi-0.dtd"
   xmlns:inkscape="http://www.inkscape.org/namespaces/inkscape"
   width="210mm"
   height="297mm"
   viewBox="0 0 744.09448819 1052.3622047"
   id="svg2"
   version="1.1"
   inkscape:version="0.91 r13725"
   sodipodi:docname="steamvr.svg">
  <defs
     id="defs4" />
  <sodipodi:namedview
     id="base"
     pagecolor="#ffffff"
     bordercolor="#666666"
     borderopacity="1.0"
     inkscape:pageopacity="0.0"
     inkscape:pageshadow="2"
     inkscape:zoom="0.98994949"
     inkscape:cx="375.40898"
     inkscape:cy="906.09181"
     inkscape:document-units="px"
     inkscape:current-layer="g4158"
     showgrid="false"
     inkscape:window-width="2048"
     inkscape:window-height="1089"
     inkscape:window-x="-8"
     inkscape:window-y="-8"
     inkscape:window-maximized="1" />
  <metadata
     id="metadata7">
    <rdf:RDF>
      <cc:Work
         rdf:about="">
        <dc:format>image/svg+xml</dc:format>
        <dc:type
           rdf:resource="http://purl.org/dc/dcmitype/StillImage" />
        <dc:title></dc:title>
      </cc:Work>
    </rdf:RDF>
  </metadata>
  <g
     inkscape:label="Layer 1"
     inkscape:groupmode="layer"
     id="layer1">
    <g
       id="g4158"
       transform="translate(-722.85714,31.428576)">
      <path
         style="fill:#ffffff;fill-opacity:1"
         d="m 1050.4459,425.83003 c -9.9803,-1.26162 -28.9742,-6.02769 -38.2629,-9.60117 -40.06512,-15.41357 -76.27929,-48.17765 -95.24383,-86.1698 -5.90673,-11.83297 -13.22884,-30.88475 -12.24721,-31.86641 0.73641,-0.73637 62.79192,24.47968 65.26919,26.52191 0.76998,0.63472 1.74488,2.99353 2.16671,5.24181 0.42184,2.24827 2.87805,7.35422 5.45843,11.34656 13.80583,21.36016 39.61751,29.28703 61.70661,18.95033 16.6668,-7.79938 27.1385,-22.2416 28.6848,-39.56108 l 0.8007,-8.96549 10.3883,-6.93381 c 42.7297,-28.52033 55.7361,-36.40684 61.108,-37.05262 30.9013,-3.71497 51.2495,-21.13151 58.6935,-50.23711 5.8946,-23.04765 0,-43.51347 -17.6159,-61.12593 -19.1,-19.10003 -42.3306,-24.36821 -67.7341,-15.36061 -23.1862,8.22135 -36.1786,22.96162 -41.7581,47.37539 -1.3697,5.99287 -3.4162,13.09601 -4.5481,15.78473 -1.8823,4.47144 -34.8754,54.60022 -39.2139,59.58023 -1.1477,1.31752 -3.6035,2.13879 -6.3955,2.13879 -7.6294,0 -17.3497,2.2369 -24.67508,5.6784 l -6.9766,3.27751 -21.74425,-8.68498 c -47.17821,-18.84373 -68.22861,-27.64026 -69.15438,-28.89826 -2.27647,-3.09336 1.88907,-27.16333 7.73615,-44.70244 11.19861,-33.59167 35.29921,-66.39063 64.57745,-87.88484 39.98851,-29.357043 97.05461,-40.229642 147.42081,-28.087585 32.107,7.740122 62.0103,25.365505 86.1728,50.791155 44.259,46.57245 59.3553,110.87052 40.9462,174.39672 -15.9371,54.99568 -64.7237,103.11227 -120.3714,118.71848 -21.6773,6.07925 -52.1647,8.24053 -75.1884,5.33012 z m -43.75,-74.92378 c -7.49228,-2.67262 -13.66368,-7.39788 -17.78198,-13.61544 -2.11681,-3.19581 -3.67872,-5.98066 -3.47071,-6.18858 0.20783,-0.2079 6.39391,2.07964 13.74701,5.08346 15.24098,6.22628 23.34458,7.03578 31.70118,3.16684 12.9721,-6.00589 18.6297,-21.2306 12.7639,-34.3477 -3.4667,-7.75199 -9.4054,-12.42371 -22.3343,-17.56928 -15.0023,-5.97072 -15.6311,-6.41376 -11.3909,-8.02587 10.018,-3.80883 25.8578,0.22781 34.8136,8.87186 8.524,8.22763 11.632,15.48021 11.6176,27.11162 -0.02,15.63126 -6.7495,26.80996 -20.183,33.52278 -6.3201,3.15814 -8.8841,3.74455 -16.176,3.69943 -4.7659,-0.0296 -10.7538,-0.7986 -13.3064,-1.70912 z M 1125.664,248.74132 c -18.7959,-3.92151 -33.7151,-19.8176 -36.846,-39.2588 -3.599,-22.34823 11.0347,-45.55642 32.6958,-51.85345 9.3297,-2.71228 21.7191,-2.41549 30.1023,0.72104 35.6549,13.3402 41.8499,61.54276 10.6573,82.92359 -10.1329,6.94568 -24.7855,9.93449 -36.6094,7.46762 z m 23.1657,-15.93984 c 22.0854,-9.98564 26.5546,-39.82182 8.3047,-55.44297 -12.8752,-11.02073 -32.4026,-10.56971 -44.1588,1.01993 -6.7809,6.685 -9.6016,12.92331 -10.3082,22.7973 -0.6676,9.3316 1.6772,16.07604 8.1533,23.45206 8.9364,10.17778 25.6344,13.76864 38.009,8.17368 z"
         id="path4160"
         inkscape:connector-curvature="0"
         sodipodi:nodetypes="ssssssssscsssssssssscssssssssssscssssssssssssssssssssss" />
      <path
         style="fill:#ffffff;fill-opacity:1"
         d="m 826.11128,546.63512 c -4.11067,-0.89439 -14.45022,-4.85778 -14.98943,-5.74579 -0.24332,-0.40075 4.42686,-11.36657 5.14797,-12.08769 0.15716,-0.15716 3.99005,0.61787 8.51752,1.72229 9.2305,2.25165 10.21607,2.32854 15.70895,1.22541 5.9949,-1.20395 8.76277,-4.88196 6.64782,-8.83379 -1.17061,-2.18729 -7.57112,-5.29996 -16.0922,-7.82588 -13.98207,-4.14474 -18.19024,-8.13753 -18.81359,-17.85074 -0.79464,-12.38221 5.0621,-19.7781 18.0883,-22.84188 9.16992,-2.15678 21.21826,-0.19494 28.97305,4.71768 l 2.87933,1.82406 -2.79638,4.83003 c -1.53801,2.65651 -3.10635,4.83003 -3.48518,4.83003 -0.37883,0 -3.50959,-0.97652 -6.95723,-2.17003 -4.48289,-1.55192 -7.60529,-2.1883 -10.96164,-2.23415 -4.4661,-0.0609 -4.79044,0.0446 -6.70242,2.18089 -4.75115,5.30866 -0.99464,10.32135 11.45232,15.28197 11.12773,4.43485 17.28995,8.74491 20.00246,13.99035 1.69946,3.28636 1.99409,10.57751 0.59737,14.78264 -3.75691,11.311 -20.73453,17.79084 -37.21702,14.2046 z m 465.10722,-35.75714 0,-36.08997 15.2502,0 c 18.3462,0 21.4978,0.62438 26.6828,5.28614 4.4059,3.96123 6.3632,8.86327 6.3983,16.02413 0.038,7.8889 -3.1595,14.00383 -9.9192,18.96587 -1.8442,1.35382 -3.3521,2.66715 -3.3507,2.91851 0,0.25137 3.5588,6.61494 7.9054,14.14129 4.3466,7.52634 7.9029,13.95996 7.9029,14.29693 0,0.33697 -1.9323,0.52058 -4.2939,0.40802 l -4.2939,-0.20466 -8.6338,-13.74856 -8.6337,-13.74856 -8.3826,-0.19302 -8.3826,-0.19302 0,14.11344 0,14.11343 -4.1246,0 -4.1246,0 z m 30.5015,-1.29332 c 2.9073,-1.21477 6.4525,-5.52476 7.3866,-8.97995 0.9787,-3.62071 0.1817,-9.4149 -1.6737,-12.16814 -2.9492,-4.37636 -5.0643,-5.02896 -17.1382,-5.28796 l -10.827,-0.23226 0,14.25943 0,14.25943 9.999,-0.45433 c 5.8803,-0.26719 10.9276,-0.84231 12.2533,-1.39622 z m -371.46574,1.29332 0,-35.40254 23.37254,0 23.37252,0 0,6.18684 0,6.18686 -15.46709,0 -15.46713,0 0,7.5617 0,7.56172 13.42974,0 13.42978,0 -0.1968,6.70242 -0.1968,6.70242 -13.23355,0 -13.2336,0 6.2e-4,7.73356 6.1e-4,7.73358 15.46713,0 15.46709,0 0,7.21798 0,7.218 -23.37252,0 -23.37254,0 z m 112.06764,32.48097 c -0.7043,-1.60686 -2.0649,-4.70716 -3.0237,-6.88956 l -1.743,-3.96799 -12.9204,0.18714 -12.9203,0.18714 -2.6946,6.3587 -2.6946,6.35872 -8.0456,0 -8.0456,0 7.7525,-20.7947 c 4.2639,-11.43709 10.1796,-27.2909 13.1462,-35.23069 l 5.3937,-14.43599 8.0112,-0.19309 8.0112,-0.19311 3.1395,8.09853 c 15.6036,40.25018 23.8023,61.79317 23.8023,62.543 0,0.68147 -1.885,0.89347 -7.9441,0.89347 l -7.9441,0 z m -10.0572,-27.84083 c -1.3496,-3.68634 -3.4265,-9.40917 -4.6154,-12.71742 -1.1888,-3.30825 -2.326,-6.015 -2.5272,-6.015 -0.2747,0 -6.7989,16.92464 -9.4735,24.57555 -0.2311,0.66099 1.9347,0.85929 9.3848,0.85929 l 9.6852,0 z m 103.3691,30.30649 c -1.0904,-0.30019 -1.2081,-1.99731 -1.3748,-19.8229 l -0.1823,-19.4946 -8.9849,18.68371 -8.9848,18.68371 -4.7232,0 -4.7233,0 -8.6334,-17.99781 c -4.7483,-9.89879 -8.8653,-18.22527 -9.1488,-18.50327 -0.2836,-0.27801 -0.5156,8.20768 -0.5156,18.85708 l 0,19.36257 -7.5617,0 -7.5617,0 0,-35.05884 0,-35.05882 7.7335,0.0203 7.7336,0.0203 11.3358,24.03969 c 6.2347,13.22186 11.5137,24.03972 11.7312,24.03972 0.2175,0 5.3888,-10.90433 11.4918,-24.23185 l 11.0963,-24.23183 7.2474,-0.19511 7.2475,-0.19511 0,35.67915 0,35.67916 -6.015,0.0265 c -3.3083,0.0146 -6.5517,-0.12119 -7.2076,-0.30175 z m 69.2932,-31.99959 c -6.7497,-17.87854 -12.8421,-33.97582 -13.5386,-35.77173 l -1.2663,-3.26528 4.6301,9.8e-4 4.6301,9.9e-4 11.2145,29.76039 c 6.1681,16.36822 11.4876,30.20207 11.8212,30.7419 0.5223,0.84505 0.6581,0.84083 0.9768,-0.0304 0.2035,-0.55653 5.1451,-14.15894 10.981,-30.22756 l 10.611,-29.2157 4.8633,-0.2019 4.8633,-0.20191 -1.7362,4.68416 c -0.955,2.57628 -6.9222,18.44361 -13.2605,35.26074 l -11.5241,30.57658 -5.4966,0.19733 -5.4965,0.19733 -12.2725,-32.50646 z m -327.60471,3.58352 0,-28.18454 -8.7647,-0.01 c -12.61323,-0.0134 -11.85813,0.45065 -11.85813,-7.28875 l 0,-6.45039 28.52826,0 28.52826,0 0,6.53057 0,6.53056 -10.67672,0 -10.67671,0 0.0438,27.32527 c 0.024,15.02889 0.0339,27.86661 0.0216,28.52826 -0.0198,1.07146 -0.84904,1.20301 -7.58392,1.20301 l -7.56171,0 z"
         id="path4162"
         inkscape:connector-curvature="0"
         sodipodi:nodetypes="scsssssssscsssssssssccsscscsssccccccccccsccscccsscccccccccccccccccccccccccsscccccccsscccssscsssssscscscccccssscccccccssscccccscccscccsccsccccscccccccsscccccccscsc" />
      <path
         sodipodi:nodetypes="ssssssssccccssssssscssss"
         inkscape:connector-curvature="0"
         id="path4214"
         d="m 1182.8769,492.89034 c -1.4562,-0.79015 -3.3061,-2.70976 -4.1107,-4.26578 -5.8389,-11.29133 8.3115,-21.9039 17.2661,-12.94927 8.8512,8.85111 -2.1172,23.20424 -13.1554,17.21505 z m 11.3968,-3.76171 c 5.2161,-5.21603 1.5367,-14.06884 -5.8473,-14.06884 -7.4945,0 -11.1783,8.71276 -6.0319,14.26668 2.8566,3.08283 8.6959,2.98558 11.8792,-0.19784 z m -10.1998,-5.68617 c 0,-2.83721 0.2042,-5.36289 0.454,-5.61261 0.2497,-0.24973 2.0324,-0.26978 3.9616,-0.0446 3.314,0.3869 3.4831,0.57621 3.0641,3.43124 -0.2566,1.74785 0.159,3.94134 0.9858,5.20313 1.2753,1.94634 1.2646,2.1814 -0.099,2.1814 -0.8404,0 -1.9939,-0.87052 -2.5634,-1.93446 -0.5694,-1.06396 -1.6729,-1.93447 -2.4521,-1.93447 -0.7793,0 -1.4168,0.87051 -1.4168,1.93447 0,1.06394 -0.4352,1.93446 -0.9672,1.93446 -0.532,0 -0.9672,-2.32136 -0.9672,-5.15857 z m 5.3866,-1.72017 c 0.7291,-1.1798 -1.4432,-2.95379 -2.6806,-2.18906 -0.4243,0.2623 -0.7716,1.1041 -0.7716,1.87065 0,1.64133 2.4925,1.8712 3.4522,0.31841 z"
         style="fill:#ffffff;fill-opacity:1" />
    </g>
  </g>
</svg>
