<?xml version="1.0" encoding="UTF-8" standalone="no"?>
<!-- Generator: Adobe Illustrator 15.0.0, SVG Export Plug-In . SVG Version: 6.00 Build 0)  -->

<svg
   xmlns:dc="http://purl.org/dc/elements/1.1/"
   xmlns:cc="http://creativecommons.org/ns#"
   xmlns:rdf="http://www.w3.org/1999/02/22-rdf-syntax-ns#"
   xmlns:svg="http://www.w3.org/2000/svg"
   xmlns="http://www.w3.org/2000/svg"
   xmlns:sodipodi="http://sodipodi.sourceforge.net/DTD/sodipodi-0.dtd"
   xmlns:inkscape="http://www.inkscape.org/namespaces/inkscape"
   version="1.1"
   id="Layer_1"
   x="0px"
   y="0px"
   width="612px"
   height="792px"
   viewBox="0 0 612 792"
   enable-background="new 0 0 612 792"
   xml:space="preserve"
   inkscape:version="0.91 r13725"
   sodipodi:docname="window_blue.svg"><metadata
     id="metadata19"><rdf:RDF><cc:Work
         rdf:about=""><dc:format>image/svg+xml</dc:format><dc:type
           rdf:resource="http://purl.org/dc/dcmitype/StillImage" /><dc:title></dc:title></cc:Work></rdf:RDF></metadata><defs
     id="defs17" /><sodipodi:namedview
     pagecolor="#ffffff"
     bordercolor="#666666"
     borderopacity="1"
     objecttolerance="10"
     gridtolerance="10"
     guidetolerance="10"
     inkscape:pageopacity="0"
     inkscape:pageshadow="2"
     inkscape:window-width="2560"
     inkscape:window-height="1377"
     id="namedview15"
     showgrid="false"
     inkscape:zoom="13.485026"
     inkscape:cx="303.48523"
     inkscape:cy="382.91256"
     inkscape:window-x="-8"
     inkscape:window-y="-8"
     inkscape:window-maximized="1"
     inkscape:current-layer="Layer_1" /><g
     id="g3"><path
       fill="#00a7f5"
       d="M305.602,371C291.461,371,280,382.461,280,396.602c0,14.137,11.461,25.598,25.602,25.598   c14.136,0,25.597-11.461,25.597-25.598C331.199,382.461,319.738,371,305.602,371L305.602,371z M305.602,420.603   c-13.258,0-24-10.747-24-24.001c0-13.257,10.742-24,24-24c13.253,0,24,10.742,24,24   C329.602,409.855,318.855,420.603,305.602,420.603L305.602,420.603z M305.602,420.603"
       id="path5" /><path
       d="m 316.66994,391.71985 4.83801,0 -0.0382,-1.602 -4.79975,0 c -0.883,0 -1.60505,-0.71501 -1.602,-1.597 l 0.0131,-3.79007 -1.59804,0 -0.0131,3.79007 c 10e-4,1.765 1.43,3.199 3.2,3.199"
       id="path7"
       inkscape:connector-curvature="0"
       style="fill:#00a7f5" /><path
       d="m 289.45175,403.31585 4.79975,0 c 0.883,0 1.60505,0.72 1.602,1.603 l -0.0131,3.79007 1.59696,0 0.0131,-3.79007 c 0.006,-1.76699 -1.433,-3.199 -3.199,-3.199 l -4.8,0 z"
       id="path9"
       inkscape:connector-curvature="0"
       style="fill:#00a7f5" /><path
       d="m 321.49461,401.71985 -4.8,0 c -1.77,0 -3.1929,1.43301 -3.199,3.199 l -0.0131,3.79007 1.59804,0 0.0131,-3.79007 c 0.003,-0.883 0.719,-1.603 1.602,-1.603 l 4.79975,0 z"
       id="path11"
       inkscape:connector-curvature="0"
       style="fill:#00a7f5" /><path
       d="m 294.24477,391.71985 c 1.766,0 3.1929,-1.43401 3.199,-3.199 l 0.0131,-3.79007 -1.59696,0 -0.0131,3.79007 c -0.003,0.88199 -0.719,1.597 -1.602,1.597 l -4.79975,0 0.0382,1.602 4.76149,0"
       id="path13"
       inkscape:connector-curvature="0"
       style="fill:#00a7f5" /></g></svg>