<?xml version="1.0" encoding="utf-8"?>
<!-- Generator: Adobe Illustrator 15.0.0, SVG Export Plug-In . SVG Version: 6.00 Build 0)  -->
<!DOCTYPE svg PUBLIC "-//W3C//DTD SVG 1.1//EN" "http://www.w3.org/Graphics/SVG/1.1/DTD/svg11.dtd">
<svg version="1.1" id="Layer_1" xmlns="http://www.w3.org/2000/svg" xmlns:xlink="http://www.w3.org/1999/xlink" x="0px" y="0px"
	 width="612px" height="792px" viewBox="0 0 612 792" enable-background="new 0 0 612 792" xml:space="preserve">
<g>
	<path d="M305.602,371C291.461,371,280,382.461,280,396.602c0,14.137,11.461,25.598,25.602,25.598
		c14.136,0,25.597-11.461,25.597-25.598C331.199,382.461,319.738,371,305.602,371L305.602,371z M305.602,420.603
		c-13.258,0-24-10.747-24-24.001c0-13.257,10.742-24,24-24c13.253,0,24,10.742,24,24
		C329.602,409.855,318.855,420.603,305.602,420.603L305.602,420.603z M305.602,420.603" fill="#00a7f5"/>
	<path d="M315.156,388.801c-0.52-0.278-1.152-0.246-1.645,0.082l-7.113,4.734v-3.406c0-0.59-0.324-1.133-0.843-1.41
		c-0.52-0.278-1.153-0.246-1.641,0.082l-9.602,6.39c-0.445,0.297-0.71,0.793-0.71,1.328s0.265,1.035,0.71,1.333l9.602,6.39
		c0.488,0.328,1.121,0.356,1.641,0.078c0.519-0.277,0.843-0.816,0.843-1.406v-3.406l7.113,4.734
		c0.492,0.328,1.121,0.356,1.645,0.078c0.52-0.277,0.844-0.816,0.844-1.406v-12.785C316,389.621,315.676,389.078,315.156,388.801
		L315.156,388.801z M314.391,401.234c0,0.446-0.242,0.848-0.633,1.055c-0.391,0.211-0.863,0.188-1.23-0.059l-6.129-4.184v-0.098
		l-0.219-0.054l-0.438-0.297c-0.082-0.056-0.16-0.121-0.226-0.196h-0.715v0.153l-0.012-0.005v3.684c0,0.446-0.242,0.848-0.633,1.055
		c-0.386,0.211-0.859,0.188-1.226-0.059l-6.789-4.632c-0.332-0.224-0.532-0.599-0.532-0.997s0.2-0.773,0.532-0.997l6.789-4.632
		c0.367-0.246,0.836-0.27,1.226-0.059c0.391,0.207,0.633,0.613,0.633,1.055v3.707l0.012-0.004v0.129h0.719
		c0.066-0.074,0.14-0.137,0.222-0.196l0.613-0.414l0.043-0.015v-0.016l6.129-4.187c0.367-0.243,0.84-0.266,1.23-0.059
		s0.633,0.613,0.633,1.055V401.234z M314.391,401.234" fill="#00a7f5"/>
</g>
</svg>
