<svg xmlns="http://www.w3.org/2000/svg" viewBox="0 0 3318.99 741.23">
	<defs>
		<style type="text/css">
			.a{isolation:isolate;}
			.sb{fill:#FFFFFF;}
			.sc{fill:#3ba1da;fill-rule:evenodd;}
		</style>
	</defs>
	<title>BIVROST</title>
	<g class="a">
		<path class="sb" d="M1462.33,725.89h52.37v-11h-52.37V679.75h54.93v-11h-68.48V773.5h69.58v-11h-56ZM1306.7,679.75h33V773.5h13.55V679.75h33v-11H1306.7ZM925.9,725.89h52.36v-11H925.9V679.75h54.93v-11H912.35V773.5h69.58v-11h-56Zm172-57.86q-52.59,0-52.59,53.25,0,53,52.59,53,51.78,0,51.78-53Q1149.64,668,1097.86,668Zm0,95.21q-38.31,0-38.31-42.4,0-41.82,38.31-41.82,37.5,0,37.5,41.82Q1135.36,763.25,1097.86,763.24Zm482.38-43.58q0,54.57,54.93,54.57a94.48,94.48,0,0,0,29.3-4.39V758.12a78,78,0,0,1-27.83,5.12q-42.86,0-42.85-43.58,0-40.63,42.85-40.64a78.22,78.22,0,0,1,27.83,5.12V672.42a94.48,94.48,0,0,0-29.3-4.39Q1580.24,668,1580.24,719.66Zm-509-432.51L978.41,502.48,805.31,113.15H740.89L942.41,562.86h67.72l124.53-275.71ZM346.7,693.88q0-25.11-29.88-25.12H272.14V773.5h13.55V680h29.88q16.69,0,16.7,14.5,0,18.31-30,23.07v8.86l33.33,47.1h17.87l-36-49.37Q346.7,714.32,346.7,693.88Zm-3.17-366.25q97.79-33,97.79-109.76,0-104.71-134.79-104.72H105V409H139.7V141.46H304.22Q406,141.46,406,220.08q0,74.35-117,96.16v29.24Q410.26,352,410.26,433.92q0,100.63-114.3,100.63H139.7V515H105v47.86H299.59q147.68,0,147.68-129.88Q447.27,344.3,343.53,327.63ZM159.87,759.44l-38.38-90.68H107.21L151.88,773.5h15l44.46-104.74H197.29Zm634.2-90.68H756V773.5h38.09q52,0,52-55.23Q846.07,668.77,794.07,668.76Zm0,93.75H769.53V679.75h24.54q38.45,0,38.45,38.52Q832.52,762.52,794.07,762.51ZM1308.9,562.86H1370s0-188.15,0-275.86h-61C1309,376.77,1308.9,562.86,1308.9,562.86ZM554.37,759.44,516,668.76H501.7L546.38,773.5h15l44.45-104.74H591.79ZM668.83,773.5h13.55V668.76H668.83ZM594.74,562.86h34.68V113.15H594.74ZM1991.23,110Q1754,110,1754,338.63,1754,566,1991.23,566q233.55,0,233.56-227.37Q2224.79,110,1991.23,110Zm0,427.69q-199.21,0-199.21-201,0-198.43,199.21-198.44,195.55,0,195.57,198.44Q2186.8,537.69,1991.23,537.7Zm772,188.19h52.37v-11h-52.37V679.75h54.93v-11H2749.7V773.5h69.58v-11h-56Zm-203-405.18h-97.12q-97.12,0-97.13-81.77,0-100.62,158.58-100.63a538.28,538.28,0,0,1,153.61,22V128.88A621.84,621.84,0,0,0,2524.56,110q-193.26,0-193.26,128.93,0,113.22,131.81,113.22h97.12q96.46,0,96.47,78.62,0,106.92-148.33,106.92-89.53,0-163.86-25.16v34.59Q2418.84,566,2508.37,566q183,0,183-135.22Q2691.39,320.71,2560.23,320.71ZM1308.9,113.15h.07C1309,94.31,1308.9,113.15,1308.9,113.15ZM2927.52,714.9h-13.47q-19.34,0-19.34-16.84,0-19,28.57-19a97,97,0,0,1,34,5.85V672.42a126.28,126.28,0,0,0-34-4.39q-42.12,0-42.12,30,0,28.56,32.89,28.56h13.47q19.93,0,19.93,16.85,0,19.77-27,19.77a105.47,105.47,0,0,1-35.6-5.86v12.46a137.84,137.84,0,0,0,35.6,4.39q40.57,0,40.58-30.76Q2961,714.91,2927.52,714.9ZM2764.86,141.46h158.57v421.4h34.69V141.46H3120V113.15H2764.86Zm-257.57,578.2q0,54.57,56.91,54.57a76.09,76.09,0,0,0,27.32-4.83V725.89H2578v35.6a72,72,0,0,1-14.95,1.75q-42.18,0-42.18-43.58,0-40.63,42.84-40.64a78.27,78.27,0,0,1,27.84,5.12V672.42a94.48,94.48,0,0,0-29.3-4.39Q2507.29,668,2507.29,719.66Zm155.26,53.84h13.55V668.76h-13.55ZM2392.89,668q-52.59,0-52.59,53.25,0,53,52.59,53,51.78,0,51.78-53Q2444.67,668,2392.89,668Zm0,95.21q-38.31,0-38.3-42.4,0-41.82,38.3-41.82,37.5,0,37.5,41.82Q2430.39,763.25,2392.89,763.24Zm-421.55-10.1-64.09-84.38H1893.7V773.5h12.82V688.39l64.08,85.11h13.55V668.76h-12.81ZM1645.21,221q0-107.86-134.79-107.87H1309c0,9.8,0,29.76,0,67.85h61c0-91.52,0-19.73,0-19.73h134.79q75.32,0,75.32,62.26,0,78.63-135.45,99.07v38L1595,562.86h80.61l-162.2-212Q1645.21,308.77,1645.21,221ZM1808.75,714.9h-61.89V668.76h-13.55V773.5h13.55V725.89h61.89V773.5h13.55V668.76h-13.55ZM2104.48,668q-52.59,0-52.59,53.25,0,53,52.59,53,51.78,0,51.78-53Q2156.26,668,2104.48,668Zm0,95.21q-38.31,0-38.3-42.4,0-41.82,38.3-41.82,37.5,0,37.5,41.82Q2142,763.25,2104.48,763.24Zm133.07-94.48H2224V773.5h68.34v-11h-54.79ZM3373.7,98.88q0-25.11-29.88-25.12h-44.68V178.5h13.55V85h29.88q16.69,0,16.7,14.5,0,18.32-30,23.07v8.86l33.33,47.1h17.87l-36-49.37Q3373.7,119.32,3373.7,98.88ZM3331,33a93,93,0,1,0,93,93A93,93,0,0,0,3331,33Zm0,173a80,80,0,1,1,80-80A80,80,0,0,1,3331,206Z" transform="translate(-105.01 -33)"/>
	</g>
	<g class="a">
		<polygon class="sc" points="1042.21 80.15 1012.99 148 1074.99 148 1104.99 80 1042.21 80.15"/>
	</g>
</svg>