<?xml version="1.0" encoding="UTF-8" standalone="no"?>
<!-- Generator: Adobe Illustrator 15.0.0, SVG Export Plug-In . SVG Version: 6.00 Build 0)  -->

<svg
   xmlns:osb="http://www.openswatchbook.org/uri/2009/osb"
   xmlns:dc="http://purl.org/dc/elements/1.1/"
   xmlns:cc="http://creativecommons.org/ns#"
   xmlns:rdf="http://www.w3.org/1999/02/22-rdf-syntax-ns#"
   xmlns:svg="http://www.w3.org/2000/svg"
   xmlns="http://www.w3.org/2000/svg"
   xmlns:sodipodi="http://sodipodi.sourceforge.net/DTD/sodipodi-0.dtd"
   xmlns:inkscape="http://www.inkscape.org/namespaces/inkscape"
   version="1.1"
   id="Layer_1"
   x="0px"
   y="0px"
   width="612px"
   height="792px"
   viewBox="0 0 612 792"
   enable-background="new 0 0 612 792"
   xml:space="preserve"
   inkscape:version="0.91 r13725"
   sodipodi:docname="bivrost.svg"><sodipodi:namedview
     pagecolor="#ffffff"
     bordercolor="#666666"
     borderopacity="1"
     objecttolerance="10"
     gridtolerance="10"
     guidetolerance="10"
     inkscape:pageopacity="0"
     inkscape:pageshadow="2"
     inkscape:window-width="2560"
     inkscape:window-height="1377"
     id="namedview15"
     showgrid="false"
     inkscape:zoom="4.7676768"
     inkscape:cx="206.76948"
     inkscape:cy="408.07525"
     inkscape:window-x="-8"
     inkscape:window-y="-8"
     inkscape:window-maximized="1"
     inkscape:current-layer="Layer_1" /><metadata
     id="metadata19"><rdf:RDF><cc:Work
         rdf:about=""><dc:format>image/svg+xml</dc:format><dc:type
           rdf:resource="http://purl.org/dc/dcmitype/StillImage" /><dc:title /></cc:Work></rdf:RDF></metadata><defs
     id="defs17"><linearGradient
       osb:paint="solid"
       id="linearGradient8947"><stop
         id="stop8949"
         offset="0"
         style="stop-color:#3b3b3b;stop-opacity:1;" /></linearGradient><clipPath
       id="clipPath8082"
       clipPathUnits="userSpaceOnUse"><path
         inkscape:connector-curvature="0"
         id="path8084"
         d="m 0,144.554 556.597,0 L 556.597,0 0,0 0,144.554 Z" /></clipPath><clipPath
       id="clipPath8130"
       clipPathUnits="userSpaceOnUse"><path
         inkscape:connector-curvature="0"
         id="path8132"
         d="M 37.231,39.609 36.808,30.326 59.821,41.964 37.231,39.609 Z" /></clipPath><clipPath
       id="clipPath8144"
       clipPathUnits="userSpaceOnUse"><path
         inkscape:connector-curvature="0"
         id="path8146"
         d="M 36.808,30.327 59.398,24.054 59.821,41.96 36.808,30.327 Z" /></clipPath><clipPath
       id="clipPath8158"
       clipPathUnits="userSpaceOnUse"><path
         inkscape:connector-curvature="0"
         id="path8160"
         d="m 0,144.554 556.597,0 L 556.597,0 0,0 0,144.554 Z" /></clipPath><clipPath
       id="clipPath8082-4"
       clipPathUnits="userSpaceOnUse"><path
         inkscape:connector-curvature="0"
         id="path8084-2"
         d="m 0,144.554 556.597,0 L 556.597,0 0,0 0,144.554 Z" /></clipPath><clipPath
       id="clipPath8130-0"
       clipPathUnits="userSpaceOnUse"><path
         inkscape:connector-curvature="0"
         id="path8132-0"
         d="M 37.231,39.609 36.808,30.326 59.821,41.964 37.231,39.609 Z" /></clipPath><clipPath
       id="clipPath8144-6"
       clipPathUnits="userSpaceOnUse"><path
         inkscape:connector-curvature="0"
         id="path8146-6"
         d="M 36.808,30.327 59.398,24.054 59.821,41.96 36.808,30.327 Z" /></clipPath><clipPath
       id="clipPath8158-0"
       clipPathUnits="userSpaceOnUse"><path
         inkscape:connector-curvature="0"
         id="path8160-4"
         d="m 0,144.554 556.597,0 L 556.597,0 0,0 0,144.554 Z" /></clipPath></defs><g
     id="g3"
     style="fill:#ffffff;fill-opacity:1"><path
       fill="#e6e6e6"
       d="M305.602,371C291.461,371,280,382.461,280,396.602c0,14.137,11.461,25.598,25.602,25.598   c14.136,0,25.597-11.461,25.597-25.598C331.199,382.461,319.738,371,305.602,371L305.602,371z M305.602,420.603   c-13.258,0-24-10.747-24-24.001c0-13.257,10.742-24,24-24c13.253,0,24,10.742,24,24   C329.602,409.855,318.855,420.603,305.602,420.603L305.602,420.603z M305.602,420.603"
       id="path5"
       style="fill:#ffffff;fill-opacity:1" /></g><g
     id="g8955"><g
       transform="matrix(0.21935483,0,0,-0.21935483,288.38076,411.82452)"
       id="g8331"><g
         id="g8078"><g
           clip-path="url(#clipPath8082-4)"
           id="g8080"><g
             transform="translate(180.2119,50.1797)"
             id="g8086" /><g
             transform="translate(192.7676,40.54)"
             id="g8090" /><g
             transform="translate(534.2275,90.4658)"
             id="g8094" /><g
             transform="translate(105.6738,84.98)"
             id="g8098"><path
               inkscape:connector-curvature="0"
               id="path8100"
               style="fill:#d5d5d5;fill-opacity:1;fill-rule:nonzero;stroke:none"
               d="M 0,0 -3.498,-26.351 -16.255,-9.095 -72.624,-32.231 -62.062,2.801 -78.376,30.253 -35.141,2.867 -78.375,30.253 -13.119,57.574 17.21,-4.912 0,0 Z m -13.119,57.574 z" /></g><g
             transform="translate(74.2505,0)"
             id="g8102"><path
               inkscape:connector-curvature="0"
               id="path8104"
               style="fill:#a4a4a4;fill-opacity:1;fill-rule:nonzero;stroke:none"
               d="M 0,0 -9.622,8.497 2.928,24.054 0,0 Z m -41.201,52.749 0,0 0,10e-4 10e-4,-10e-4 56.367,23.136 6.187,-8.368 0.158,-0.213 0,-7.186 0,-0.015 -5.846,-7.579 5.846,7.579 -8.75,-33.042 -11.295,7.058 -42.668,18.63 z m 62.713,7.354 0,0 0.453,-21.278 -0.453,21.293 M 21.354,67.517 20.918,87.978 76.346,72.16 58.358,52.813 56.267,27.061 37.651,20.916 12.762,27.061 m -42.044,53.073 -19.452,-4.575 -7.111,22.484 33.046,5.491 -6.483,-23.4 z" /></g><g
             transform="translate(0,75.0361)"
             id="g8106"><path
               inkscape:connector-curvature="0"
               id="path8108"
               style="fill:#a9a9a9;fill-opacity:1;fill-rule:nonzero;stroke:none"
               d="m 0,0 40.995,22.353 20.498,-41.046 -6.354,-4.383 4.68,-9.996 10e-4,0 -10e-4,-10e-4 0,-10e-4 0,-0.002 -23.01,-11.634 23.008,11.636 0.002,0 6.903,-1.699 14.849,-3.137 -22.17,-13.072 0.284,12.166 -0.287,-12.165 -22.589,6.271 0.422,9.283 6.837,0.712 -6.838,-0.712 2.571,1.774 L 37.23,-35.427 0,0 Z m 142.544,47.246 -19.452,-9.935 -0.418,14.379 10.458,8.498 9.412,-12.942 z M 59.401,-50.982 Z M 134.07,28.236 128.005,-4.053 101.86,5.882 81.363,18.693 134.07,28.236 Z" /></g><g
             transform="translate(61.4927,56.3428)"
             id="g8110"><path
               inkscape:connector-curvature="0"
               id="path8112"
               style="fill:#d2d2d2;fill-opacity:1;fill-rule:nonzero;stroke:none"
               d="M 0,0 -61.493,18.693 -20.498,41.046 0,0 Z" /></g><g
             transform="translate(101.8599,80.918)"
             id="g8114"><path
               inkscape:connector-curvature="0"
               id="path8116"
               style="fill:#d2d2d2;fill-opacity:1;fill-rule:nonzero;stroke:none"
               d="M 0,0 32.21,22.354 -20.497,12.811 0,0 Z" /></g><g
             transform="translate(101.8599,80.918)"
             id="g8118"><path
               inkscape:connector-curvature="0"
               id="path8120"
               style="fill:#b6b6b6;fill-opacity:1;fill-rule:nonzero;stroke:none"
               d="M 0,0 32.21,22.354 26.145,-9.935 0,0 Z" /></g><g
             transform="translate(61.4927,56.3428)"
             id="g8122"><path
               inkscape:connector-curvature="0"
               id="path8124"
               style="fill:#b2b2b2;fill-opacity:1;fill-rule:nonzero;stroke:none"
               d="M 0,0 -61.493,18.693 -24.263,-16.733 0,0 Z" /></g></g></g><g
         id="g8126"><g
           clip-path="url(#clipPath8130-0)"
           id="g8128"><g
             id="g8134"><g
               transform="matrix(23.25975,0,0,11.644394,36.775391,30.323379)"
               id="g8136" /></g></g></g><g
         id="g8140"><g
           clip-path="url(#clipPath8144-6)"
           id="g8142"><g
             id="g8148"><g
               transform="matrix(23.25975,0,0,18.178802,36.775391,23.791901)"
               id="g8150" /></g></g></g><g
         id="g8154"><g
           clip-path="url(#clipPath8158-0)"
           id="g8156"><g
             transform="translate(59.8193,41.9619)"
             id="g8162"><path
               inkscape:connector-curvature="0"
               id="path8164"
               style="fill:#a9a9a9;fill-opacity:1;fill-rule:nonzero;stroke:none"
               d="M 0,0 6.902,-1.699 -0.418,-17.908 0,0 Z" /></g><g
             transform="translate(81.5713,37.126)"
             id="g8166"><path
               inkscape:connector-curvature="0"
               id="path8168"
               style="fill:#b0b0b0;fill-opacity:1;fill-rule:nonzero;stroke:none"
               d="M 0,0 -14.85,3.137 -22.17,-13.072 0,0 Z" /></g><g
             transform="translate(59.8193,41.9619)"
             id="g8170"><path
               inkscape:connector-curvature="0"
               id="path8172"
               style="fill:#a9a9a9;fill-opacity:1;fill-rule:nonzero;stroke:none"
               d="M 0,0 -4.681,9.999 -22.589,-2.353 0,0 Z" /></g><g
             transform="translate(142.5444,122.2822)"
             id="g8174"><path
               inkscape:connector-curvature="0"
               id="path8176"
               style="fill:#b0b0b0;fill-opacity:1;fill-rule:nonzero;stroke:none"
               d="M 0,0 -19.452,-9.936 -19.87,4.444 -9.412,12.941 0,0 Z" /></g><g
             transform="translate(74.2515,0)"
             id="g8178"><path
               inkscape:connector-curvature="0"
               id="path8180"
               style="fill:#a4a4a4;fill-opacity:1;fill-rule:nonzero;stroke:none"
               d="M 0,0 -9.622,8.497 2.928,24.054 0,0 Z" /></g><g
             transform="translate(18.4058,98.043)"
             id="g8182"><path
               inkscape:connector-curvature="0"
               id="path8184"
               style="fill:#c1c1c1;fill-opacity:1;fill-rule:nonzero;stroke:none"
               d="M 0,0 26.563,-17.909 33.047,5.491 0,0 Z" /></g><g
             transform="translate(18.4058,98.043)"
             id="g8186"><path
               inkscape:connector-curvature="0"
               id="path8188"
               style="fill:#a9a9a9;fill-opacity:1;fill-rule:nonzero;stroke:none"
               d="M 0,0 26.563,-17.909 7.112,-22.484 0,0 Z" /></g><g
             transform="translate(96.2158,38.8252)"
             id="g8190"><path
               inkscape:connector-curvature="0"
               id="path8192"
               style="fill:#b8b8b8;fill-opacity:1;fill-rule:nonzero;stroke:none"
               d="M 0,0 54.381,33.334 -1.046,49.152 0,0 Z" /></g><g
             transform="translate(96.2158,38.8252)"
             id="g8194"><path
               inkscape:connector-curvature="0"
               id="path8196"
               style="fill:#a9a9a9;fill-opacity:1;fill-rule:nonzero;stroke:none"
               d="M 0,0 54.381,33.334 36.393,13.987 0,0 Z" /></g><g
             transform="translate(96.2158,38.8252)"
             id="g8198"><path
               inkscape:connector-curvature="0"
               id="path8200"
               style="fill:#b5b5b5;fill-opacity:1;fill-rule:nonzero;stroke:none"
               d="M 0,0 34.302,-11.766 36.393,13.987 0,0 Z" /></g><g
             transform="translate(96.2158,38.8252)"
             id="g8202"><path
               inkscape:connector-curvature="0"
               id="path8204"
               style="fill:#a6a6a6;fill-opacity:1;fill-rule:nonzero;stroke:none"
               d="M 0,0 34.302,-11.766 15.687,-17.909 0,0 Z" /></g><g
             transform="translate(96.2158,38.8252)"
             id="g8206"><path
               inkscape:connector-curvature="0"
               id="path8208"
               style="fill:#a0a0a0;fill-opacity:1;fill-rule:nonzero;stroke:none"
               d="M 0,0 -9.203,-11.766 15.687,-17.909 0,0 Z" /></g><g
             transform="translate(96.2158,38.8252)"
             id="g8210"><path
               inkscape:connector-curvature="0"
               id="path8212"
               style="fill:#a9a9a9;fill-opacity:1;fill-rule:nonzero;stroke:none"
               d="M 0,0 -9.203,-11.766 -0.453,21.277 0,0 Z" /></g><g
             transform="translate(75.7183,34.1191)"
             id="g8214"><path
               inkscape:connector-curvature="0"
               id="path8216"
               style="fill:#a6a6a6;fill-opacity:1;fill-rule:nonzero;stroke:none"
               d="M 0,0 11.295,-7.06 20.044,25.983 0,0 Z" /></g><g
             transform="translate(105.6738,84.98)"
             id="g8218"><path
               inkscape:connector-curvature="0"
               id="path8220"
               style="fill:#d5d5d5;fill-opacity:1;fill-rule:nonzero;stroke:none"
               d="M 0,0 -3.498,-26.351 -16.256,-9.095 -13.119,57.574 0,0 Z" /></g><g
             transform="translate(122.8838,80.0684)"
             id="g8222"><path
               inkscape:connector-curvature="0"
               id="path8224"
               style="fill:#e0e0e0;fill-opacity:1;fill-rule:nonzero;stroke:none"
               d="M 0,0 -30.329,62.486 -17.21,4.912 0,0 Z" /></g><g
             transform="translate(92.5552,142.5542)"
             id="g8226"><path
               inkscape:connector-curvature="0"
               id="path8228"
               style="fill:#e6e6e6;fill-opacity:1;fill-rule:nonzero;stroke:none"
               d="M 0,0 -3.137,-66.669 -65.257,-27.321 0,0 Z" /></g><g
             transform="translate(43.6123,87.7808)"
             id="g8230"><path
               inkscape:connector-curvature="0"
               id="path8232"
               style="fill:#bebebe;fill-opacity:1;fill-rule:nonzero;stroke:none"
               d="M 0,0 45.806,-11.896 -16.315,27.453 0,0 Z" /></g><g
             transform="translate(43.6123,87.7808)"
             id="g8234"><path
               inkscape:connector-curvature="0"
               id="path8236"
               style="fill:#dddddd;fill-opacity:1;fill-rule:nonzero;stroke:none"
               d="M 0,0 45.806,-11.896 -10.562,-35.032 0,0 Z" /></g><g
             transform="translate(75.7183,34.1191)"
             id="g8238"><path
               inkscape:connector-curvature="0"
               id="path8240"
               style="fill:#a6a6a6;fill-opacity:1;fill-rule:nonzero;stroke:none"
               d="M 0,0 11.9,15.426 -42.668,18.63 0,0 Z" /></g><g
             transform="translate(87.6182,49.5449)"
             id="g8242"><path
               inkscape:connector-curvature="0"
               id="path8244"
               style="fill:#b8b8b8;fill-opacity:1;fill-rule:nonzero;stroke:none"
               d="M 0,0 -54.568,3.204 1.8,26.34 8.145,17.759 8.145,10.558 0,0 Z" /></g></g></g></g></g></svg>