<?xml version="1.0" encoding="utf-8"?>
<!-- Generator: Adobe Illustrator 15.0.0, SVG Export Plug-In . SVG Version: 6.00 Build 0)  -->
<!DOCTYPE svg PUBLIC "-//W3C//DTD SVG 1.1//EN" "http://www.w3.org/Graphics/SVG/1.1/DTD/svg11.dtd">
<svg version="1.1" id="Layer_1" xmlns="http://www.w3.org/2000/svg" xmlns:xlink="http://www.w3.org/1999/xlink" x="0px" y="0px"
	 width="612px" height="792px" viewBox="0 0 612 792" enable-background="new 0 0 612 792" xml:space="preserve">
<g>
	<path d="M305.602,371C291.461,371,280,382.461,280,396.602c0,14.137,11.461,25.598,25.602,25.598
		c14.136,0,25.597-11.461,25.597-25.598C331.199,382.461,319.738,371,305.602,371L305.602,371z M305.602,420.603
		c-13.258,0-24-10.747-24-24.001c0-13.257,10.742-24,24-24c13.253,0,24,10.742,24,24
		C329.602,409.855,318.855,420.603,305.602,420.603L305.602,420.603z M305.602,420.603" fill="#00a7f5"/>
	<path d="M312.953,390.379l-1.129-1.133l-6.222,6.223l-6.223-6.223l-1.133,1.133l6.223,6.222l-6.223,6.223l1.133,1.129l6.223-6.223
		l6.222,6.223l1.129-1.129l-6.223-6.223L312.953,390.379z M312.953,390.379" fill="#00a7f5"/>
</g>
</svg>
