<?xml version="1.0" encoding="UTF-8" standalone="no"?>
<!-- Generator: Adobe Illustrator 15.0.0, SVG Export Plug-In . SVG Version: 6.00 Build 0)  -->

<svg
   xmlns:dc="http://purl.org/dc/elements/1.1/"
   xmlns:cc="http://creativecommons.org/ns#"
   xmlns:rdf="http://www.w3.org/1999/02/22-rdf-syntax-ns#"
   xmlns:svg="http://www.w3.org/2000/svg"
   xmlns="http://www.w3.org/2000/svg"
   xmlns:sodipodi="http://sodipodi.sourceforge.net/DTD/sodipodi-0.dtd"
   xmlns:inkscape="http://www.inkscape.org/namespaces/inkscape"
   version="1.1"
   id="Layer_1"
   x="0px"
   y="0px"
   width="612px"
   height="792px"
   viewBox="0 0 612 792"
   enable-background="new 0 0 612 792"
   xml:space="preserve"
   inkscape:version="0.91 r13725"
   sodipodi:docname="gyrooff.svg"><metadata
     id="metadata13"><rdf:RDF><cc:Work
         rdf:about=""><dc:format>image/svg+xml</dc:format><dc:type
           rdf:resource="http://purl.org/dc/dcmitype/StillImage" /><dc:title></dc:title></cc:Work></rdf:RDF></metadata><defs
     id="defs11" /><sodipodi:namedview
     pagecolor="#ffffff"
     bordercolor="#666666"
     borderopacity="1"
     objecttolerance="10"
     gridtolerance="10"
     guidetolerance="10"
     inkscape:pageopacity="0"
     inkscape:pageshadow="2"
     inkscape:window-width="2560"
     inkscape:window-height="1377"
     id="namedview9"
     showgrid="false"
     inkscape:zoom="11.313709"
     inkscape:cx="273.55806"
     inkscape:cy="408.02803"
     inkscape:window-x="-8"
     inkscape:window-y="-8"
     inkscape:window-maximized="1"
     inkscape:current-layer="Layer_1"
     showguides="true"
     inkscape:guide-bbox="true"
     inkscape:snap-bbox="true"
     inkscape:bbox-paths="true"
     inkscape:bbox-nodes="true"
     inkscape:snap-bbox-edge-midpoints="true"
     inkscape:snap-bbox-midpoints="true"
     inkscape:object-paths="true"
     inkscape:snap-intersection-paths="true"
     inkscape:object-nodes="true"
     inkscape:snap-smooth-nodes="true"
     inkscape:snap-midpoints="true"
     inkscape:snap-object-midpoints="true"
     inkscape:snap-center="true"
     inkscape:snap-text-baseline="true"
     inkscape:snap-page="true"><sodipodi:guide
       position="313.889,406.524"
       orientation="0,1"
       id="guide8075" /><sodipodi:guide
       position="313.889,384.277"
       orientation="0,1"
       id="guide8077" /><sodipodi:guide
       position="294.477,403.689"
       orientation="1,0"
       id="guide8079" /><sodipodi:guide
       position="316.723,403.689"
       orientation="1,0"
       id="guide8081" /><sodipodi:guide
       position="294.477,400.66684"
       orientation="0,1"
       id="guide8083" /><sodipodi:guide
       position="300.40837,384.277"
       orientation="1,0"
       id="guide8085" /><sodipodi:guide
       position="310.84322,384.277"
       orientation="1,0"
       id="guide8087" /><sodipodi:guide
       position="294.477,390.12712"
       orientation="0,1"
       id="guide8089" /><sodipodi:guide
       position="294.477,395.4005"
       orientation="0,1"
       id="guide8091" /><sodipodi:guide
       position="305.6,406.524"
       orientation="1,0"
       id="guide8093" /></sodipodi:namedview><g
     id="g3"
     style="fill:#ffffff"><path
       d="M305.602,371C291.461,371,280,382.461,280,396.602   c0,14.137,11.461,25.598,25.602,25.598c14.136,0,25.597-11.461,25.597-25.598C331.199,382.461,319.738,371,305.602,371L305.602,371   z M305.602,420.602c-13.258,0-24-10.746-24-24c0-13.257,10.742-24,24-24c13.253,0,24,10.742,24,24   C329.603,409.855,318.855,420.602,305.602,420.602L305.602,420.602z"
       id="path5"
       clip-rule="evenodd"
       fill-rule="evenodd"
       fill="#00a7f5"
       style="fill:#ffffff" /></g><path
     style="fill:#ffffff;fill-opacity:1;stroke:none;stroke-width:1.32500005;stroke-miterlimit:4;stroke-dasharray:none;stroke-opacity:1"
     d="m 305.59961,383.86103 a 13.06314,12.738527 0 0 0 -13.0632,12.73858 13.06314,12.738527 0 0 0 13.0632,12.73858 13.06314,12.738527 0 0 0 13.0632,-12.73858 13.06314,12.738527 0 0 0 -13.0632,-12.73858 z m 0,1.61497 a 11.585154,11.12408 0 0 1 11.58598,11.12361 11.585154,11.12408 0 0 1 -11.58598,11.12584 11.585154,11.12408 0 0 1 -11.58369,-11.12584 11.585154,11.12408 0 0 1 11.58369,-11.12361 z"
     id="path8095"
     inkscape:connector-curvature="0" /><path
     style="fill:#ffffff;fill-opacity:1;stroke:none;stroke-width:1.32500005;stroke-miterlimit:4;stroke-dasharray:none;stroke-opacity:1"
     d="m 309.27539,391.4082 c -1.97576,0.71559 -4.56221,1.79737 -5.85156,3.06055 -1.34068,1.31346 -2.48197,4.00015 -3.20508,5.95117 0.36429,-0.36386 0.98146,-0.97639 1.5293,-1.52148 0.51105,-1.24682 1.28155,-2.75418 2.32812,-3.78906 0.74585,0.73016 0.55191,0.54014 0.7461,0.73046 1.9985,-1.98512 3.46173,-3.44204 4.45312,-4.43164 z m 1.37695,2.25782 c -1.00155,1.00194 -2.20397,2.20348 -3.98437,3.98046 l 0.45508,0.44532 c -0.57634,0.51598 -1.45892,1.02062 -2.37305,1.4707 -0.79921,0.79752 -1.28887,1.28619 -1.89648,1.89258 1.79689,-0.70613 3.84545,-1.66834 4.92187,-2.72266 1.1324,-1.10914 2.1475,-3.24504 2.87695,-5.0664 z"
     id="path8131"
     inkscape:connector-curvature="0"
     sodipodi:nodetypes="csccccccccccsc" /><path
     d="m 317.88943,383.35808 c -8.56129,8.64676 -17.34088,17.22131 -25.81458,25.8146 l 1.2357,1.2357 c 8.55417,-8.55398 16.94343,-16.8839 25.8146,-25.81458 z"
     id="path7-3"
     style="fill:#ffffff;fill-opacity:1"
     inkscape:connector-curvature="0"
     sodipodi:nodetypes="ccccc" /></svg>