<?xml version="1.0" encoding="UTF-8" standalone="no"?>
<!-- Generator: Adobe Illustrator 15.0.0, SVG Export Plug-In . SVG Version: 6.00 Build 0)  -->

<svg
   xmlns:dc="http://purl.org/dc/elements/1.1/"
   xmlns:cc="http://creativecommons.org/ns#"
   xmlns:rdf="http://www.w3.org/1999/02/22-rdf-syntax-ns#"
   xmlns:svg="http://www.w3.org/2000/svg"
   xmlns="http://www.w3.org/2000/svg"
   xmlns:sodipodi="http://sodipodi.sourceforge.net/DTD/sodipodi-0.dtd"
   xmlns:inkscape="http://www.inkscape.org/namespaces/inkscape"
   version="1.1"
   id="Layer_1"
   x="0px"
   y="0px"
   width="612px"
   height="792px"
   viewBox="0 0 612 792"
   enable-background="new 0 0 612 792"
   xml:space="preserve"
   inkscape:version="0.91 r13725"
   sodipodi:docname="mute_blue.svg"><metadata
     id="metadata13"><rdf:RDF><cc:Work
         rdf:about=""><dc:format>image/svg+xml</dc:format><dc:type
           rdf:resource="http://purl.org/dc/dcmitype/StillImage" /><dc:title></dc:title></cc:Work></rdf:RDF></metadata><defs
     id="defs11" /><sodipodi:namedview
     pagecolor="#ffffff"
     bordercolor="#666666"
     borderopacity="1"
     objecttolerance="10"
     gridtolerance="10"
     guidetolerance="10"
     inkscape:pageopacity="0"
     inkscape:pageshadow="2"
     inkscape:window-width="2560"
     inkscape:window-height="1377"
     id="namedview9"
     showgrid="false"
     showguides="true"
     inkscape:guide-bbox="true"
     inkscape:snap-bbox="true"
     inkscape:bbox-paths="true"
     inkscape:bbox-nodes="true"
     inkscape:snap-bbox-edge-midpoints="true"
     inkscape:snap-bbox-midpoints="true"
     inkscape:object-paths="true"
     inkscape:snap-intersection-paths="true"
     inkscape:object-nodes="true"
     inkscape:snap-smooth-nodes="true"
     inkscape:snap-midpoints="true"
     inkscape:snap-object-midpoints="true"
     inkscape:snap-center="true"
     inkscape:snap-text-baseline="true"
     inkscape:snap-page="true"
     inkscape:zoom="13.485026"
     inkscape:cx="289.7893"
     inkscape:cy="388.32284"
     inkscape:window-x="-8"
     inkscape:window-y="-8"
     inkscape:window-maximized="1"
     inkscape:current-layer="Layer_1"><sodipodi:guide
       position="314.398,395"
       orientation="1,0"
       id="guide8073" /><sodipodi:guide
       position="316,395"
       orientation="1,0"
       id="guide8075" /><sodipodi:guide
       position="308.801,404.18"
       orientation="0,1"
       id="guide8077" /><sodipodi:guide
       position="308.801,385.801"
       orientation="0,1"
       id="guide8079" /></sodipodi:namedview><g
     id="g3"
     style="fill:#00a7f5;fill-opacity:1"><path
       d="M305.602,371C291.461,371,280,382.461,280,396.602c0,14.137,11.461,25.598,25.602,25.598   c14.136,0,25.597-11.461,25.597-25.598C331.199,382.461,319.738,371,305.602,371L305.602,371z M305.602,420.603   c-13.258,0-24-10.747-24-24.001c0-13.257,10.742-24,24-24c13.253,0,24,10.742,24,24   C329.602,409.855,318.855,420.603,305.602,420.603L305.602,420.603z M305.602,420.603"
       fill="#fff"
       id="path5"
       style="fill:#00a7f5;fill-opacity:1" /><path
       d="m 300.285,392.668 c -0.223,-0.039 -0.449,-0.066 -0.683,-0.066 -2.434,0 -4.403,1.968 -4.403,4.398 0,2.431 1.969,4.398 4.403,4.398 0.234,0 0.46,-0.027 0.683,-0.066 1.371,2.563 3.914,4.392 6.914,4.781 l 0,0.086 1.602,0 0,-18.379 c -0.133,-0.008 -0.266,-0.019 -0.402,-0.019 -3.512,0 -6.563,1.969 -8.114,4.867 z m -0.648,7.129 c -0.012,0 -0.024,0.004 -0.035,0.004 -1.547,0 -2.801,-1.254 -2.801,-2.801 0,-1.547 1.254,-2.801 2.801,-2.801 0.011,0 0.023,0.004 0.035,0.004 -0.282,0.883 -0.438,1.82 -0.438,2.797 0,0.978 0.156,1.914 0.438,2.797 z m 7.562,4.699 c -3.625,-0.578 -6.398,-3.707 -6.398,-7.496 0,-3.789 2.773,-6.918 6.398,-7.496 z"
       id="path7"
       style="fill:#00a7f5;fill-opacity:1"
       inkscape:connector-curvature="0"
       sodipodi:nodetypes="cssscccccscscssscssccs" /></g><path
     d="m 314.86721,386.68721 c -6.81424,6.88227 -13.80223,13.70706 -20.54675,20.54676 l 1.13278,1.13278 C 302.26181,401.55833 308.93912,394.92825 316,387.82 Z"
     id="path7-3"
     style="fill:#00a7f5;fill-opacity:1"
     inkscape:connector-curvature="0"
     sodipodi:nodetypes="ccccc" /></svg>