<?xml version="1.0" encoding="utf-8"?>
<!-- Generator: Adobe Illustrator 15.0.0, SVG Export Plug-In . SVG Version: 6.00 Build 0)  -->
<!DOCTYPE svg PUBLIC "-//W3C//DTD SVG 1.1//EN" "http://www.w3.org/Graphics/SVG/1.1/DTD/svg11.dtd">
<svg version="1.1" id="Layer_1" xmlns="http://www.w3.org/2000/svg" xmlns:xlink="http://www.w3.org/1999/xlink" x="0px" y="0px"
	 width="612px" height="792px" viewBox="0 0 612 792" enable-background="new 0 0 612 792" xml:space="preserve">
<g>
	<path d="M305.602,371C291.461,371,280,382.461,280,396.602c0,14.137,11.461,25.598,25.602,25.598
		c14.136,0,25.597-11.461,25.597-25.598C331.199,382.461,319.738,371,305.602,371L305.602,371z M305.602,420.603
		c-13.258,0-24-10.747-24-24.001c0-13.257,10.742-24,24-24c13.253,0,24,10.742,24,24
		C329.602,409.855,318.855,420.603,305.602,420.603L305.602,420.603z M305.602,420.603" fill="#00a7f5"/>
	<path d="M316.887,395.273l-9.598-6.39c-0.492-0.328-1.125-0.36-1.644-0.082c-0.52,0.277-0.844,0.82-0.844,1.41v3.406l-7.113-4.734
		c-0.493-0.328-1.122-0.36-1.645-0.082c-0.52,0.277-0.844,0.82-0.844,1.41v12.785c0,0.59,0.324,1.129,0.848,1.406
		c0.519,0.278,1.148,0.25,1.641-0.078l7.113-4.734v3.406c0,0.59,0.324,1.129,0.844,1.406c0.519,0.278,1.152,0.25,1.644-0.078
		l9.598-6.39c0.445-0.298,0.715-0.798,0.715-1.333S317.332,395.57,316.887,395.273L316.887,395.273z M315.059,397.599l-6.789,4.632
		c-0.367,0.247-0.84,0.27-1.227,0.059c-0.391-0.207-0.633-0.613-0.633-1.055v-3.684h-0.012v-0.152h-0.714
		c-0.067,0.075-0.141,0.141-0.227,0.2l-0.437,0.297l-0.219,0.054v0.098l-6.129,4.184c-0.367,0.247-0.84,0.27-1.231,0.059
		c-0.39-0.207-0.632-0.613-0.632-1.055v-9.265c0-0.442,0.242-0.848,0.632-1.055c0.391-0.207,0.864-0.184,1.231,0.059l6.129,4.183
		v0.02l0.047,0.011l0.609,0.418c0.082,0.055,0.16,0.122,0.227,0.196h0.714v-0.129l0.012,0.004v-3.711
		c0-0.442,0.242-0.844,0.633-1.055c0.391-0.207,0.859-0.183,1.23,0.063l6.785,4.632c0.332,0.223,0.531,0.594,0.531,0.997
		C315.59,397,315.391,397.375,315.059,397.599L315.059,397.599z M315.059,397.599" fill="#00a7f5"/>
</g>
</svg>
