<?xml version="1.0" encoding="UTF-8" standalone="no"?>
<!-- Generator: Adobe Illustrator 15.0.0, SVG Export Plug-In . SVG Version: 6.00 Build 0)  -->

<svg
   xmlns:dc="http://purl.org/dc/elements/1.1/"
   xmlns:cc="http://creativecommons.org/ns#"
   xmlns:rdf="http://www.w3.org/1999/02/22-rdf-syntax-ns#"
   xmlns:svg="http://www.w3.org/2000/svg"
   xmlns="http://www.w3.org/2000/svg"
   xmlns:sodipodi="http://sodipodi.sourceforge.net/DTD/sodipodi-0.dtd"
   xmlns:inkscape="http://www.inkscape.org/namespaces/inkscape"
   version="1.1"
   id="Layer_1"
   x="0px"
   y="0px"
   width="612px"
   height="792px"
   viewBox="0 0 612 792"
   enable-background="new 0 0 612 792"
   xml:space="preserve"
   inkscape:version="0.91 r13725"
   sodipodi:docname="oculusoff.svg"><metadata
     id="metadata17"><rdf:RDF><cc:Work
         rdf:about=""><dc:format>image/svg+xml</dc:format><dc:type
           rdf:resource="http://purl.org/dc/dcmitype/StillImage" /><dc:title></dc:title></cc:Work></rdf:RDF></metadata><defs
     id="defs15" /><sodipodi:namedview
     pagecolor="#ffffff"
     bordercolor="#666666"
     borderopacity="1"
     objecttolerance="10"
     gridtolerance="10"
     guidetolerance="10"
     inkscape:pageopacity="0"
     inkscape:pageshadow="2"
     inkscape:window-width="2560"
     inkscape:window-height="1377"
     id="namedview13"
     showgrid="false"
     showguides="true"
     inkscape:guide-bbox="true"
     inkscape:snap-bbox="true"
     inkscape:bbox-nodes="true"
     inkscape:snap-bbox-edge-midpoints="true"
     inkscape:bbox-paths="true"
     inkscape:object-paths="true"
     inkscape:snap-intersection-paths="true"
     inkscape:object-nodes="true"
     inkscape:snap-smooth-nodes="true"
     inkscape:snap-midpoints="true"
     inkscape:snap-object-midpoints="true"
     inkscape:snap-center="true"
     inkscape:snap-text-baseline="true"
     inkscape:snap-page="true"
     inkscape:zoom="6.7425131"
     inkscape:cx="279.4525"
     inkscape:cy="380.59976"
     inkscape:window-x="-8"
     inkscape:window-y="-8"
     inkscape:window-maximized="1"
     inkscape:current-layer="Layer_1"><sodipodi:guide
       position="341.64069,422.92959"
       orientation="0,1"
       id="guide8092" /><sodipodi:guide
       position="341.64069,421.32759"
       orientation="0,1"
       id="guide8094" /><sodipodi:guide
       position="341.64069,422.92959"
       orientation="1,0"
       id="guide8096" /><sodipodi:guide
       position="367.29628,422.92959"
       orientation="1,0"
       id="guide8098" /></sodipodi:namedview><g
     id="g3"
     style="fill:#ffffff"><path
       d="M305.602,371C291.461,371,280,382.461,280,396.602c0,14.137,11.461,25.598,25.602,25.598   c14.136,0,25.597-11.461,25.597-25.598C331.199,382.461,319.738,371,305.602,371L305.602,371z M305.602,420.603   c-13.258,0-24-10.747-24-24.001c0-13.257,10.742-24,24-24c13.253,0,24,10.742,24,24   C329.602,409.855,318.855,420.603,305.602,420.603L305.602,420.603z M305.602,420.603"
       fill="#00a7f5"
       id="path5"
       style="fill:#ffffff" /><path
       d="M305.602,388.602c-4.508,0-12,3.582-12,8c0,4.419,7.492,8.001,12,8.001c4.503,0,12-3.582,12-8.001   C317.602,392.184,310.105,388.602,305.602,388.602L305.602,388.602z M305.602,403.004c-3.75,0-10.411-2.867-10.411-6.402   c0-3.54,6.661-6.402,10.411-6.402c3.746,0,10.406,2.863,10.406,6.402C316.008,400.137,309.348,403.004,305.602,403.004   L305.602,403.004z M305.602,403.004"
       fill="#00a7f5"
       id="path7"
       style="fill:#ffffff" /><path
       d="M305.602,391.801c-2.653,0-4.801,2.148-4.801,4.8c0,2.648,2.148,4.797,4.801,4.797c2.648,0,4.796-2.148,4.796-4.797   C310.398,393.949,308.25,391.801,305.602,391.801L305.602,391.801z M305.602,399.801c-1.77,0-3.204-1.434-3.204-3.199   c0-1.77,1.434-3.203,3.204-3.203c1.765,0,3.199,1.434,3.199,3.203C308.801,398.367,307.367,399.801,305.602,399.801   L305.602,399.801z M305.602,399.801"
       fill="#00a7f5"
       id="path9"
       style="fill:#ffffff" /><path
       d="M309.488,395.691c-0.348-1.476-1.504-2.632-2.98-2.98c-0.985,0.301-1.707,1.207-1.707,2.289   c0,1.324,1.074,2.398,2.398,2.398C308.281,397.398,309.188,396.676,309.488,395.691L309.488,395.691z M306.398,395   c0-0.441,0.359-0.801,0.801-0.801S308,394.559,308,395c0,0.441-0.359,0.801-0.801,0.801S306.398,395.441,306.398,395L306.398,395z    M306.398,395"
       fill="#00a7f5"
       id="path11"
       style="fill:#ffffff" /></g><path
     inkscape:connector-curvature="0"
     style="fill:#ffffff"
     d="m 292.6747,410.76555 26.99168,-27.19762 -1.13708,-1.12848 -26.99168,27.19762"
     id="path5-6"
     sodipodi:nodetypes="cccc" /></svg>