<?xml version="1.0" encoding="UTF-8" standalone="no"?>
<svg
   xmlns:dc="http://purl.org/dc/elements/1.1/"
   xmlns:cc="http://creativecommons.org/ns#"
   xmlns:rdf="http://www.w3.org/1999/02/22-rdf-syntax-ns#"
   xmlns:svg="http://www.w3.org/2000/svg"
   xmlns="http://www.w3.org/2000/svg"
   version="1.1"
   x="0px"
   y="0px"
   viewBox="0 0 688.8 148.3"
   enable-background="new 0 0 688.8 148.3"
   xml:space="preserve"
   id="svg2"><metadata
     id="metadata12"><rdf:RDF><cc:Work
         rdf:about=""><dc:format>image/svg+xml</dc:format><dc:type
           rdf:resource="http://purl.org/dc/dcmitype/StillImage" /><dc:title></dc:title></cc:Work></rdf:RDF></metadata><defs
     id="defs10" /><g
     id="BG" /><g
     id="Oculus_Logo"
     transform="matrix(0.29935837,0,0,0.29935837,120.5644,111.01844)"
     style="fill:#00a7f5;fill-opacity:1"><path
       d="m 450,30 c -2.4,-0.5 -4.9,-0.7 -7.3,-0.4 -1.2,0.1 -2.4,0.4 -3.6,0.8 -0.9,0.3 -1.7,0.8 -2.5,1.4 -1.1,0.9 -1.9,2 -2.1,3.5 -0.1,1.2 0.3,2.3 1,3.3 0.9,1.1 2.2,1.8 3.4,2.4 1.2,0.5 2.4,0.9 3.6,1.2 1.4,0.4 2.9,0.7 4.3,1 3.3,0.7 6.6,1.5 9.7,2.7 5.6,2.2 10.9,5.9 13.1,12.1 0.9,2.6 1.2,5.4 0.8,8.2 -0.5,3.3 -1.8,6.5 -3.9,9.2 -1.6,2.1 -3.5,3.8 -5.8,5.1 -3.1,1.8 -6.5,2.9 -10,3.5 -2.7,0.5 -5.4,0.6 -8.2,0.5 -3.4,-0.1 -6.7,-0.7 -10,-1.6 -6,-1.7 -11.4,-4.6 -16.1,-8.6 2.7,-3.6 5.3,-7.1 8,-10.7 3,2.3 6.1,4.1 9.6,5.4 2.3,0.9 4.6,1.4 7.1,1.7 2.2,0.3 4.5,0.3 6.7,0.1 1.6,-0.2 3.2,-0.6 4.6,-1.3 1.1,-0.5 2.1,-1.3 2.9,-2.3 0.6,-0.8 1.1,-1.8 1.2,-2.9 0.1,-1.1 -0.2,-2.2 -0.7,-3.2 -0.7,-1.1 -1.7,-2 -2.8,-2.7 -1.4,-0.9 -3.1,-1.4 -4.6,-1.9 -1.9,-0.6 -3.9,-1 -5.9,-1.4 -5.6,-1.2 -12.2,-2.7 -16.9,-6.8 -2.2,-1.9 -3.9,-4.4 -4.8,-7.2 -1,-3.1 -1,-6.4 -0.1,-9.5 0.7,-2.5 1.9,-4.8 3.5,-6.8 2.3,-2.8 5.2,-4.8 8.5,-6.2 2.5,-1 5,-1.7 7.7,-2 3.4,-0.5 6.9,-0.4 10.3,0.1 6.1,0.9 11.8,3.3 16.8,6.9 -2.5,3.4 -5,6.9 -7.5,10.3 -3,-1.7 -6.3,-3.1 -10,-3.9 z m -123.4,-44.5 -15,0 0,97.3 15,0 z m 77.6,97.2 0,-63 -15,0 0,29.8 c 0,1.7 0,3.5 -0.1,5.2 -0.1,1.1 -0.2,2.2 -0.4,3.3 -0.4,2.1 -1.1,4.1 -2.2,5.9 -2.8,4.4 -7.7,6.5 -12.7,6.6 -5.1,0.1 -9.9,-2 -12.6,-6.5 -1.1,-1.8 -1.7,-3.8 -2.1,-5.9 -0.5,-2.8 -0.7,-5.7 -0.7,-8.5 0,-1.8 -0.1,-3.7 -0.1,-5.5 l 0,-9.4 0,-14.9 -15,0 0,25.5 c 0,2.5 0,4.9 0.1,7.4 0.1,1.8 0.1,3.6 0.3,5.4 0.4,4.3 1.2,8.4 3.1,12.3 4,8 11.7,12.6 20.3,13.6 4.2,0.5 8.6,0.1 12.6,-1.1 3.9,-1.2 8.1,-3.2 11,-6.2 0.1,2 0.3,4 0.4,6.1 4.3,-0.1 8.7,-0.1 13.1,-0.1 z M 223.5,74.6 c -3.4,-3.5 -6.9,-7.1 -10.3,-10.6 -2.7,2.5 -5.9,4.2 -9.5,4.9 -3.5,0.8 -7.2,0.7 -10.7,-0.4 -3.5,-1.1 -6.4,-3.3 -8.6,-6.3 -2.1,-3 -3.2,-6.5 -3.4,-10.1 -0.2,-3.5 0.5,-7.3 2.2,-10.4 1.8,-3.3 4.4,-5.7 7.8,-7.1 1.5,-0.6 3,-1.1 4.5,-1.3 2,-0.3 4,-0.4 6,-0.1 3.6,0.4 7,1.8 10,3.7 3,-3.8 6,-7.7 9.1,-11.5 -5.2,-4.1 -11.1,-6.5 -17.7,-7.2 -6.4,-0.7 -13.1,0.3 -18.9,3.1 -6,2.8 -10.7,7.3 -13.8,13.2 -3.1,5.7 -4.3,12.3 -4,18.8 0.3,6.4 2.2,12.9 6,18.2 3.8,5.4 9.1,9.3 15.3,11.4 6.1,2.1 12.9,2.4 19.2,1.1 6.4,-1.6 12.3,-4.6 16.8,-9.4 z m 70.3,8.1 0,-63 -15,0 0,29.8 c 0,1.7 0,3.5 -0.1,5.2 -0.1,1.1 -0.2,2.2 -0.4,3.3 -0.4,2.1 -1.1,4.1 -2.2,5.9 -2.8,4.4 -7.7,6.5 -12.7,6.6 -5.1,0.1 -9.9,-2 -12.6,-6.5 -1.1,-1.8 -1.7,-3.8 -2.1,-5.9 -0.5,-2.8 -0.7,-5.7 -0.7,-8.5 0,-1.8 -0.1,-3.7 -0.1,-5.5 l 0,-9.4 0,-14.9 -15,0 0,25.5 c 0,2.5 0,4.9 0.1,7.4 0.1,1.8 0.1,3.6 0.3,5.4 0.4,4.3 1.2,8.4 3.1,12.3 4,8 11.7,12.6 20.3,13.6 4.2,0.5 8.6,0.1 12.6,-1.1 3.9,-1.2 8.1,-3.2 11,-6.2 0.1,2 0.3,4 0.4,6.1 4.3,-0.1 8.7,-0.1 13.1,-0.1 z M 155.1,51.3 c 0,8.7 -3.2,17.2 -9.4,23.5 -6.2,6.2 -14.7,9.5 -23.4,9.5 -8.7,0 -17.2,-3.3 -23.3,-9.6 -6.2,-6.3 -9.3,-14.8 -9.2,-23.5 0,-8.7 3.2,-17.2 9.4,-23.5 6.2,-6.2 14.7,-9.5 23.4,-9.5 8.7,0 17.2,3.3 23.3,9.6 6.1,6.3 9.3,14.9 9.2,23.5 z m -14.7,0 c 0,-1.3 -0.1,-2.6 -0.3,-3.8 -0.2,-1.2 -0.6,-2.4 -1,-3.6 -0.4,-1.1 -1,-2.1 -1.6,-3.1 -0.6,-0.9 -1.3,-1.8 -2.1,-2.6 -0.8,-0.8 -1.7,-1.5 -2.6,-2.1 -1,-0.6 -2,-1.2 -3.1,-1.6 -1.1,-0.5 -2.3,-0.8 -3.5,-1 -1.2,-0.2 -2.5,-0.4 -3.7,-0.4 -1.2,0 -2.5,0.1 -3.7,0.3 -1.2,0.2 -2.4,0.6 -3.5,1 -1.1,0.4 -2.1,1 -3.1,1.6 -0.9,0.6 -1.8,1.3 -2.6,2.1 -0.8,0.8 -1.5,1.7 -2.1,2.6 -0.6,1 -1.2,2 -1.6,3.1 -0.5,1.1 -0.8,2.3 -1,3.6 -0.2,1.3 -0.4,2.5 -0.4,3.8 0,1.3 0.1,2.6 0.3,3.8 0.2,1.2 0.6,2.4 1,3.6 0.4,1.1 1,2.1 1.6,3.1 0.6,0.9 1.3,1.8 2.1,2.6 0.8,0.8 1.7,1.5 2.6,2.1 1,0.6 2,1.2 3.1,1.6 1.1,0.5 2.3,0.8 3.5,1 1.2,0.2 2.5,0.4 3.7,0.4 1.2,0 2.5,-0.1 3.7,-0.3 1.2,-0.2 2.4,-0.6 3.5,-1 1.1,-0.4 2.1,-1 3.1,-1.6 0.9,-0.6 1.8,-1.3 2.6,-2.1 0.8,-0.8 1.5,-1.7 2.1,-2.6 0.6,-1 1.2,-2 1.6,-3.1 0.5,-1.1 0.8,-2.3 1,-3.6 0.2,-1.3 0.4,-2.5 0.4,-3.8 z"
       id="path6"
       style="fill:#00a7f5;fill-opacity:1" /></g><path
     d="m 261.10914,63.5629 c 0,10.132507 -4.58916,19.719767 -12.49525,26.035545 -3.9076,3.13517 -8.40589,5.316158 -13.31311,6.497526 -2.81711,0.681559 -5.58878,0.954183 -8.49677,1.090494 -2.13555,0.09087 -4.2711,0.04544 -6.36121,0.04544 l -30.21577,0 c -2.13555,0 -4.2711,0 -6.36122,-0.04544 -2.86254,-0.09087 -5.67965,-0.408935 -8.49676,-1.045056 -4.90723,-1.181369 -9.40551,-3.362357 -13.31312,-6.497527 -7.95152,-6.361215 -12.54068,-15.903038 -12.54068,-26.080982 0,-10.132507 4.58916,-19.719767 12.49524,-26.035545 3.95305,-3.13517 8.45133,-5.316158 13.31312,-6.497527 2.81711,-0.681558 5.63422,-0.999619 8.49676,-1.090494 2.13556,-0.04544 4.22567,-0.04544 6.36122,-0.04544 l 30.21577,0 c 2.13555,0 4.2711,0 6.36122,0.04544 2.86254,0.09088 5.67965,0.408936 8.49676,1.045057 4.90723,1.181369 9.40551,3.362357 13.31312,6.497527 7.90608,6.361215 12.54068,15.948475 12.54068,26.080982 z m -22.49144,0 c 0,-3.63498 -1.77205,-6.997337 -4.77091,-9.08745 -1.49943,-1.045057 -3.13517,-1.635741 -4.90723,-1.953802 -1.77205,-0.272624 -3.5441,-0.227186 -5.31615,-0.227186 l -36.57699,0 c -1.77205,0 -3.54411,-0.04544 -5.31616,0.227186 -1.77205,0.272623 -3.40779,0.908745 -4.90722,1.953802 -2.99886,2.044676 -4.77091,5.407033 -4.77091,9.042013 0,3.63498 1.77205,6.997336 4.77091,9.08745 1.49943,1.045056 3.13517,1.635741 4.90722,1.953802 1.77205,0.272623 3.54411,0.227186 5.31616,0.227186 l 36.57699,0 c 1.77205,0 3.5441,0.04544 5.31615,-0.227186 1.77206,-0.272624 3.4078,-0.908746 4.90723,-1.953802 2.95342,-1.999239 4.77091,-5.407033 4.77091,-9.042013 z"
     id="path6-3"
     style="fill:#00a7f5;fill-opacity:1" /></svg>