<?xml version="1.0" encoding="UTF-8" standalone="no"?>
<svg
   xmlns:dc="http://purl.org/dc/elements/1.1/"
   xmlns:cc="http://creativecommons.org/ns#"
   xmlns:rdf="http://www.w3.org/1999/02/22-rdf-syntax-ns#"
   xmlns:svg="http://www.w3.org/2000/svg"
   xmlns="http://www.w3.org/2000/svg"
   version="1.1"
   id="Layer_1"
   x="0px"
   y="0px"
   width="612px"
   height="792px"
   viewBox="0 0 612 792"
   enable-background="new 0 0 612 792"
   xml:space="preserve"><metadata
     id="metadata15"><rdf:RDF><cc:Work
         rdf:about=""><dc:format>image/svg+xml</dc:format><dc:type
           rdf:resource="http://purl.org/dc/dcmitype/StillImage" /><dc:title></dc:title></cc:Work></rdf:RDF></metadata><defs
     id="defs13" /><g
     id="g3"
     style="fill:#ffffff;fill-opacity:1"><path
       d="M305.602,371C291.461,371,280,382.461,280,396.602c0,14.137,11.461,25.598,25.602,25.598   c14.136,0,25.597-11.461,25.597-25.598C331.199,382.461,319.738,371,305.602,371L305.602,371z M305.602,420.603   c-13.258,0-24-10.747-24-24.001c0-13.257,10.742-24,24-24c13.253,0,24,10.742,24,24   C329.602,409.855,318.855,420.603,305.602,420.603L305.602,420.603z M305.602,420.603"
       fill="#fff"
       id="path5"
       style="fill:#ffffff;fill-opacity:1" /></g><g
     style="fill:#ffffff"
     id="g8101"
     transform="matrix(1.3168317,0,0,1.266907,-95.485149,-104.56149)"><path
       style="fill:#ffffff;fill-opacity:1"
       id="path9-3"
       d="m 297.88054,395.31015 0,-3.68266 12,0 0,2.24834 4,-3 -4,-3 0,2.24834 -12.23273,0 c -0.883,0 -1.28943,0.47066 -1.28943,1.35366 l 0,3.82452" /><path
       style="fill:#ffffff;fill-opacity:1"
       id="path9-3-0"
       d="m 311.18196,395.68826 0,3.68266 -12,0 0,-2.24834 -4,3 4,3 0,-2.24834 12.23273,0 c 0.883,0 1.28943,-0.47066 1.28943,-1.35366 l 0,-3.82452" /></g></svg>