<?xml version="1.0" encoding="UTF-8" standalone="no"?>
<svg
   xmlns:dc="http://purl.org/dc/elements/1.1/"
   xmlns:cc="http://creativecommons.org/ns#"
   xmlns:rdf="http://www.w3.org/1999/02/22-rdf-syntax-ns#"
   xmlns:svg="http://www.w3.org/2000/svg"
   xmlns="http://www.w3.org/2000/svg"
   xmlns:sodipodi="http://sodipodi.sourceforge.net/DTD/sodipodi-0.dtd"
   xmlns:inkscape="http://www.inkscape.org/namespaces/inkscape"
   xml:space="preserve"
   enable-background="new 0 0 612 792"
   viewBox="0 0 612 792"
   height="792px"
   width="612px"
   y="0px"
   x="0px"
   id="Layer_1"
   version="1.1"
   inkscape:version="0.91 r13725"
   sodipodi:docname="playmode_repeat_blue.svg"><sodipodi:namedview
     pagecolor="#ffffff"
     bordercolor="#666666"
     borderopacity="1"
     objecttolerance="10"
     gridtolerance="10"
     guidetolerance="10"
     inkscape:pageopacity="0"
     inkscape:pageshadow="2"
     inkscape:window-width="2560"
     inkscape:window-height="1377"
     id="namedview10"
     showgrid="false"
     inkscape:zoom="19.070707"
     inkscape:cx="308.64142"
     inkscape:cy="389.04915"
     inkscape:window-x="-8"
     inkscape:window-y="-8"
     inkscape:window-maximized="1"
     inkscape:current-layer="Layer_1" /><metadata
     id="metadata15"><rdf:RDF><cc:Work
         rdf:about=""><dc:format>image/svg+xml</dc:format><dc:type
           rdf:resource="http://purl.org/dc/dcmitype/StillImage" /><dc:title /></cc:Work></rdf:RDF></metadata><defs
     id="defs13" /><g
     style="fill:#00a7f5;fill-opacity:1"
     id="g3"><path
       style="fill:#00a7f5;fill-opacity:1"
       id="path5"
       fill="#fff"
       d="M305.602,371C291.461,371,280,382.461,280,396.602c0,14.137,11.461,25.598,25.602,25.598   c14.136,0,25.597-11.461,25.597-25.598C331.199,382.461,319.738,371,305.602,371L305.602,371z M305.602,420.603   c-13.258,0-24-10.747-24-24.001c0-13.257,10.742-24,24-24c13.253,0,24,10.742,24,24   C329.602,409.855,318.855,420.603,305.602,420.603L305.602,420.603z M305.602,420.603" /></g><g
     transform="matrix(1.3168317,0,0,1.266907,-95.485149,-104.56149)"
     id="g8101"><path
       d="m 297.88054,395.31015 0,-3.68266 12,0 0,2.24834 4,-3 -4,-3 0,2.24834 -12.23273,0 c -0.883,0 -1.28943,0.47066 -1.28943,1.35366 l 0,3.82452"
       id="path9-3"
       style="fill:#00a7f5;fill-opacity:1"
       inkscape:connector-curvature="0"
       sodipodi:nodetypes="cccccccssc" /><path
       d="m 311.18196,395.68826 0,3.68266 -12,0 0,-2.24834 -4,3 4,3 0,-2.24834 12.23273,0 c 0.883,0 1.28943,-0.47066 1.28943,-1.35366 l 0,-3.82452"
       id="path9-3-0"
       style="fill:#00a7f5;fill-opacity:1"
       inkscape:connector-curvature="0"
       sodipodi:nodetypes="cccccccssc" /></g></svg>