<?xml version="1.0" ?><!DOCTYPE svg  PUBLIC '-//W3C//DTD SVG 1.1//EN'  'http://www.w3.org/Graphics/SVG/1.1/DTD/svg11.dtd'><svg height="21.382px" id="Capa_1" style="enable-background:new 0 0 19.059 21.382;" version="1.1" viewBox="0 0 19.059 21.382" width="19.059px" xml:space="preserve" xmlns="http://www.w3.org/2000/svg" xmlns:xlink="http://www.w3.org/1999/xlink"><g><path d="M14.062,7.036c1.463,1.297,2.303,2.862,2.303,4.816c0,3.77-3.066,6.835-6.835,6.835   c-3.77,0-6.835-3.065-6.835-6.835c0-1.825,0.711-3.542,2.002-4.833L2.791,5.114C0.991,6.915,0,9.308,0,11.853   c0,5.254,4.274,9.529,9.529,9.529c5.254,0,9.529-4.275,9.529-9.529c0-2.725-1.17-5.024-3.209-6.833L14.062,7.036z" style="fill:#ffffff;"/><path d="M10.9,11.747c0,0.787-0.715,1.424-1.598,1.424c-0.881,0-1.597-0.637-1.597-1.424V1.424   C7.706,0.637,8.422,0,9.303,0C10.186,0,10.9,0.637,10.9,1.424V11.747z" style="fill:#ffffff;"/></g><g/><g/><g/><g/><g/><g/><g/><g/><g/><g/><g/><g/><g/><g/><g/></svg>