<?xml version="1.0" encoding="utf-8"?>
<!-- Generator: Adobe Illustrator 15.0.0, SVG Export Plug-In . SVG Version: 6.00 Build 0)  -->
<!DOCTYPE svg PUBLIC "-//W3C//DTD SVG 1.1//EN" "http://www.w3.org/Graphics/SVG/1.1/DTD/svg11.dtd">
<svg version="1.1" id="Layer_1" xmlns="http://www.w3.org/2000/svg" xmlns:xlink="http://www.w3.org/1999/xlink" x="0px" y="0px"
	 width="612px" height="792px" viewBox="0 0 612 792" enable-background="new 0 0 612 792" xml:space="preserve">
<g>
	<path d="M305.602,371C291.461,371,280,382.461,280,396.602c0,14.137,11.461,25.598,25.602,25.598
		c14.136,0,25.597-11.461,25.597-25.598C331.199,382.461,319.738,371,305.602,371L305.602,371z M305.602,420.603
		c-13.258,0-24-10.747-24-24.001c0-13.257,10.742-24,24-24c13.253,0,24,10.742,24,24
		C329.602,409.855,318.855,420.603,305.602,420.603L305.602,420.603z M305.602,420.603" fill="#00a7f5"/>
	<path d="M300.285,392.668c-0.223-0.039-0.449-0.066-0.683-0.066c-2.434,0-4.403,1.968-4.403,4.398c0,2.431,1.969,4.398,4.403,4.398
		c0.234,0,0.46-0.027,0.683-0.066c1.371,2.563,3.914,4.392,6.914,4.781v0.086h1.602V387.82c-0.133-0.008-0.266-0.019-0.402-0.019
		C304.887,387.801,301.836,389.77,300.285,392.668L300.285,392.668z M299.637,399.797c-0.012,0-0.024,0.004-0.035,0.004
		c-1.547,0-2.801-1.254-2.801-2.801s1.254-2.801,2.801-2.801c0.011,0,0.023,0.004,0.035,0.004c-0.282,0.883-0.438,1.82-0.438,2.797
		C299.199,397.978,299.355,398.914,299.637,399.797L299.637,399.797z M307.199,404.496c-3.625-0.578-6.398-3.707-6.398-7.496
		s2.773-6.918,6.398-7.496V404.496z M310.398,389.676v1.672c2.332,0.824,4,3.043,4,5.652c0,2.613-1.668,4.828-4,5.652v1.672
		c3.227-0.879,5.602-3.82,5.602-7.324S313.625,390.555,310.398,389.676L310.398,389.676z M312.801,397
		c0-1.707-0.98-3.168-2.402-3.898v1.941c0.496,0.508,0.801,1.195,0.801,1.957s-0.305,1.449-0.801,1.957v1.941
		C311.82,400.168,312.801,398.707,312.801,397L312.801,397z M312.801,397" fill="#00a7f5"/>
</g>
</svg>
