<?xml version="1.0" encoding="utf-8"?>
<!-- Generator: Adobe Illustrator 15.0.0, SVG Export Plug-In . SVG Version: 6.00 Build 0)  -->
<!DOCTYPE svg PUBLIC "-//W3C//DTD SVG 1.1//EN" "http://www.w3.org/Graphics/SVG/1.1/DTD/svg11.dtd">
<svg version="1.1" id="Layer_1" xmlns="http://www.w3.org/2000/svg" xmlns:xlink="http://www.w3.org/1999/xlink" x="0px" y="0px"
	 width="612px" height="792px" viewBox="0 0 612 792" enable-background="new 0 0 612 792" xml:space="preserve">
<g>
	<path fill-rule="evenodd" clip-rule="evenodd" d="M305.602,371C291.461,371,280,382.461,280,396.602
		c0,14.137,11.461,25.598,25.602,25.598c14.136,0,25.597-11.461,25.597-25.598C331.199,382.461,319.738,371,305.602,371L305.602,371
		z M305.602,420.602c-13.258,0-24-10.746-24-24c0-13.257,10.742-24,24-24c13.253,0,24,10.742,24,24
		C329.603,409.855,318.855,420.602,305.602,420.602L305.602,420.602z" fill="#00a7f5"/>
	<path fill-rule="evenodd" clip-rule="evenodd" d="M297.312,385.476h16.577c1.559,0,2.834,1.276,2.834,2.835v16.578
		c0,1.559-1.275,2.834-2.834,2.834h-16.577c-1.559,0-2.835-1.275-2.835-2.834v-16.578
		C294.477,386.752,295.752,385.476,297.312,385.476L297.312,385.476z M298.362,386.887h14.476c1.361,0,2.475,1.114,2.475,2.475
		v14.476c0,1.361-1.113,2.475-2.475,2.475h-14.476c-1.361,0-2.475-1.113-2.475-2.475v-14.476
		C295.887,388,297.001,386.887,298.362,386.887L298.362,386.887z" fill="#00a7f5"/>
</g>
</svg>
